M48
;Layer_Color=9474304
;FILE_FORMAT=2:5
INCH,LZ
;TYPE=PLATED
T1F00S00C0.01500
T2F00S00C0.02800
T3F00S00C0.03500
T4F00S00C0.03543
T5F00S00C0.04331
;TYPE=NON_PLATED
T6F00S00C0.04331
%
T01
X0323Y0348815
X0331Y03605
X0346Y0347815
X034585Y0381
X036Y03815
X03605Y038875
X0366Y03885
X036Y03985
X0356954Y0404535
X0357707Y0409293
X0358Y0416
X0360582Y0421178
X0363688Y0412504
X0363454Y0404223
X0344452Y0398048
X03395Y04025
X0338Y0412815
X03475Y042
X033Y03945
X0325Y0394815
X0385Y04105
X039225Y041625
X0392Y0423
T02
X05085Y0261815
X04715Y0303447
X0464Y0245
X04615Y02365
X0448Y025
X0442975Y0264315
X04417Y0225815
X0418Y0219
X0413063Y0237515
X0407Y02335
X03898Y0238415
X03895Y0255015
X0404Y02655
X03776Y0275615
X03515Y0268815
X03929Y0214115
X02965Y02415
X030978Y0283135
X03155Y03745
X0356Y03475
X0359652Y0339444
X03749Y041875
X038624Y041625
X039218Y0406635
X0406739Y040476
X0414Y04
X04105Y0393615
X04319Y0401815
X046Y0411715
X04188Y0430715
X04145Y0444515
X04755Y0434
T03
X04095Y0300815
X04045Y0306315
X04095Y0311815
X0434Y0307315
X0439Y0301815
Y0312815
X0434Y0318315
X04045Y0317315
T04
X0308Y0376815
Y0386815
Y0396815
Y0406815
Y0416815
Y0426815
T05
X02875Y0319315
Y0329315
X02885Y0350315
Y0360315
T06
X02975Y0319315
Y0329315
X02985Y0350315
Y0360315
M30
