G04*
G04 #@! TF.GenerationSoftware,Altium Limited,Altium Designer,21.3.2 (30)*
G04*
G04 Layer_Physical_Order=1*
G04 Layer_Color=255*
%FSLAX25Y25*%
%MOIN*%
G70*
G04*
G04 #@! TF.SameCoordinates,A7B022F8-E884-4121-B654-9C37E9188DC7*
G04*
G04*
G04 #@! TF.FilePolarity,Positive*
G04*
G01*
G75*
%ADD14C,0.01000*%
%ADD16R,0.05512X0.05906*%
%ADD17R,0.04134X0.02362*%
%ADD18R,0.04331X0.06693*%
%ADD19R,0.06693X0.04331*%
%ADD20R,0.05906X0.05512*%
%ADD21R,0.01772X0.04134*%
%ADD22R,0.05500X0.02200*%
G04:AMPARAMS|DCode=23|XSize=21.65mil|YSize=49.21mil|CornerRadius=1.95mil|HoleSize=0mil|Usage=FLASHONLY|Rotation=180.000|XOffset=0mil|YOffset=0mil|HoleType=Round|Shape=RoundedRectangle|*
%AMROUNDEDRECTD23*
21,1,0.02165,0.04532,0,0,180.0*
21,1,0.01776,0.04921,0,0,180.0*
1,1,0.00390,-0.00888,0.02266*
1,1,0.00390,0.00888,0.02266*
1,1,0.00390,0.00888,-0.02266*
1,1,0.00390,-0.00888,-0.02266*
%
%ADD23ROUNDEDRECTD23*%
%ADD24O,0.09843X0.02756*%
%ADD25R,0.05512X0.04724*%
%ADD26R,0.04724X0.05512*%
%ADD27R,0.10630X0.04528*%
%ADD28R,0.10236X0.04331*%
%ADD29C,0.01500*%
%ADD49C,0.05512*%
%ADD50R,0.05906X0.05906*%
%ADD51C,0.05906*%
%ADD52C,0.06299*%
%ADD53R,0.06299X0.06299*%
%ADD54C,0.03000*%
%ADD55C,0.05000*%
G36*
X530000Y452500D02*
Y173500D01*
X259500D01*
X258500Y174500D01*
Y455500D01*
X527000D01*
X530000Y452500D01*
D02*
G37*
%LPC*%
G36*
X419300Y434204D02*
Y431215D01*
X422290D01*
X422061Y432066D01*
X421601Y432864D01*
X420949Y433516D01*
X420151Y433977D01*
X419300Y434204D01*
D02*
G37*
G36*
X414921Y447715D02*
X414079D01*
X413265Y447497D01*
X412535Y447076D01*
X411939Y446480D01*
X411518Y445750D01*
X411300Y444936D01*
Y444094D01*
X411518Y443280D01*
X411939Y442550D01*
X412535Y441954D01*
X413022Y441674D01*
Y424315D01*
X413134Y423749D01*
X413455Y423270D01*
X415955Y420770D01*
X416434Y420449D01*
X417000Y420337D01*
X417500D01*
Y420015D01*
X424400D01*
Y423615D01*
X417500D01*
X417500Y423615D01*
Y423615D01*
X417085Y423821D01*
X415978Y424927D01*
Y427880D01*
X416478Y428087D01*
X416651Y427914D01*
X417200Y427597D01*
Y427315D01*
X424700D01*
Y428915D01*
X422302D01*
X422116Y429238D01*
X422075Y429415D01*
X422290Y430215D01*
X418800D01*
Y430715D01*
X418300D01*
Y434204D01*
X417449Y433977D01*
X416651Y433516D01*
X416478Y433343D01*
X415978Y433550D01*
Y441674D01*
X416465Y441954D01*
X417061Y442550D01*
X417482Y443280D01*
X417700Y444094D01*
Y444936D01*
X417482Y445750D01*
X417061Y446480D01*
X416465Y447076D01*
X415735Y447497D01*
X414921Y447715D01*
D02*
G37*
G36*
X424700Y426315D02*
X421450D01*
Y424715D01*
X424700D01*
Y426315D01*
D02*
G37*
G36*
X420450D02*
X417200D01*
Y424715D01*
X420450D01*
Y426315D01*
D02*
G37*
G36*
X308481Y430468D02*
X307519D01*
X306590Y430219D01*
X305757Y429738D01*
X305077Y429058D01*
X304596Y428225D01*
X304347Y427296D01*
Y426334D01*
X304596Y425405D01*
X305077Y424572D01*
X305757Y423892D01*
X306590Y423411D01*
X307519Y423162D01*
X308481D01*
X309410Y423411D01*
X310243Y423892D01*
X310923Y424572D01*
X311404Y425405D01*
X311653Y426334D01*
Y427296D01*
X311404Y428225D01*
X310923Y429058D01*
X310243Y429738D01*
X309410Y430219D01*
X308481Y430468D01*
D02*
G37*
G36*
X477260Y439728D02*
X464635D01*
X464069Y439616D01*
X463590Y439295D01*
X432588Y408293D01*
X424400D01*
Y408615D01*
X417500D01*
Y405015D01*
X424400D01*
Y405337D01*
X430747D01*
X430813Y404837D01*
X430665Y404797D01*
X429935Y404376D01*
X429339Y403780D01*
X429059Y403293D01*
X424400D01*
Y403615D01*
X417500D01*
Y401233D01*
X417000Y401168D01*
X416982Y401235D01*
X416561Y401965D01*
X415965Y402561D01*
X415235Y402982D01*
X414421Y403200D01*
X413579D01*
X412765Y402982D01*
X412035Y402561D01*
X411439Y401965D01*
X411018Y401235D01*
X410800Y400421D01*
Y399579D01*
X411018Y398765D01*
X411439Y398035D01*
X412035Y397439D01*
X412765Y397018D01*
X413579Y396800D01*
X414421D01*
X415235Y397018D01*
X415965Y397439D01*
X416275Y397749D01*
X417500Y396524D01*
Y395015D01*
X424400D01*
Y398615D01*
X420743D01*
X420600Y398643D01*
X419562D01*
X418653Y399553D01*
X418844Y400015D01*
X424400D01*
Y400337D01*
X429059D01*
X429339Y399850D01*
X429935Y399254D01*
X430665Y398833D01*
X431479Y398615D01*
X432321D01*
X433135Y398833D01*
X433865Y399254D01*
X434461Y399850D01*
X434882Y400580D01*
X435100Y401394D01*
Y402236D01*
X434882Y403050D01*
X434461Y403780D01*
X433865Y404376D01*
X433135Y404797D01*
X432987Y404837D01*
X433053Y405337D01*
X433200D01*
X433766Y405449D01*
X434245Y405770D01*
X455782Y427306D01*
X456244Y427115D01*
Y426315D01*
X459500D01*
Y429177D01*
X458306D01*
X458115Y429639D01*
X465247Y436772D01*
X472669D01*
X472860Y436310D01*
X472699Y436149D01*
X472238Y435351D01*
X472011Y434500D01*
X475500D01*
Y433500D01*
X472011D01*
X472238Y432649D01*
X472699Y431851D01*
X473351Y431199D01*
X474022Y430812D01*
Y429524D01*
X472744D01*
Y427640D01*
X468546D01*
X467981Y427527D01*
X467631Y427293D01*
X463756D01*
Y429177D01*
X460500D01*
Y425815D01*
X460000D01*
Y425315D01*
X456244D01*
X456244Y422453D01*
X456544Y422077D01*
X456544Y421953D01*
Y416060D01*
X458522D01*
Y414557D01*
X458035Y414276D01*
X457439Y413680D01*
X457018Y412950D01*
X456800Y412136D01*
Y411294D01*
X457018Y410480D01*
X457439Y409750D01*
X458035Y409154D01*
X458522Y408874D01*
Y397968D01*
X453544D01*
Y390662D01*
X460456D01*
Y392837D01*
X470607D01*
Y389162D01*
X472585D01*
Y330790D01*
X467178Y325384D01*
X466678Y325591D01*
Y326815D01*
X466566Y327381D01*
X466245Y327860D01*
X461245Y332860D01*
X460766Y333181D01*
X460200Y333293D01*
X420032D01*
X419466Y333181D01*
X418986Y332860D01*
X406358Y320233D01*
X405834Y320535D01*
X404955Y320771D01*
X404045D01*
X403166Y320535D01*
X402378Y320080D01*
X401735Y319437D01*
X401280Y318649D01*
X401044Y317770D01*
Y316860D01*
X401280Y315981D01*
X401735Y315193D01*
X402378Y314550D01*
X403166Y314095D01*
X404045Y313859D01*
X404955D01*
X405834Y314095D01*
X406622Y314550D01*
X407265Y315193D01*
X407720Y315981D01*
X407956Y316860D01*
Y317649D01*
X420644Y330337D01*
X459588D01*
X463722Y326203D01*
Y319862D01*
X462663D01*
Y321815D01*
X462551Y322381D01*
X462230Y322860D01*
X458545Y326545D01*
X458066Y326866D01*
X457500Y326978D01*
X423185D01*
X422619Y326866D01*
X422140Y326545D01*
X410673Y315079D01*
X409955Y315271D01*
X409045D01*
X408166Y315035D01*
X407378Y314580D01*
X406735Y313937D01*
X406280Y313149D01*
X406044Y312270D01*
Y311360D01*
X406280Y310481D01*
X406521Y310062D01*
X406155Y309696D01*
X405950Y309815D01*
X405000Y310069D01*
Y306815D01*
X408254D01*
X408000Y307765D01*
X407698Y308287D01*
X408064Y308653D01*
X408166Y308595D01*
X409045Y308359D01*
X409955D01*
X410834Y308595D01*
X411622Y309050D01*
X412265Y309693D01*
X412720Y310481D01*
X412956Y311360D01*
Y312270D01*
X412764Y312988D01*
X423797Y324022D01*
X427057D01*
X427248Y323560D01*
X408504Y304816D01*
X408056Y305075D01*
X408254Y305815D01*
X405000D01*
Y302561D01*
X405950Y302815D01*
X406155Y302934D01*
X406521Y302568D01*
X406280Y302149D01*
X406044Y301270D01*
Y300360D01*
X406280Y299481D01*
X406735Y298693D01*
X407378Y298050D01*
X408166Y297595D01*
X409045Y297359D01*
X409955D01*
X410216Y297429D01*
X410475Y296981D01*
X393705Y280210D01*
X393384Y279731D01*
X393272Y279165D01*
Y239755D01*
X392782Y239650D01*
X392361Y240380D01*
X391765Y240976D01*
X391035Y241397D01*
X390221Y241615D01*
X389379D01*
X388565Y241397D01*
X387835Y240976D01*
X387239Y240380D01*
X387178Y240274D01*
X386678Y240408D01*
Y250103D01*
X388536Y251960D01*
X389079Y251815D01*
X389921D01*
X390735Y252033D01*
X391465Y252454D01*
X392061Y253050D01*
X392482Y253780D01*
X392700Y254594D01*
Y255436D01*
X392482Y256250D01*
X392061Y256980D01*
X391465Y257576D01*
X390735Y257997D01*
X389921Y258215D01*
X389079D01*
X388265Y257997D01*
X387535Y257576D01*
X387178Y257219D01*
X386678Y257426D01*
Y263366D01*
X388345Y265033D01*
X388666Y265512D01*
X388778Y266078D01*
Y312815D01*
X388666Y313381D01*
X388345Y313860D01*
X365701Y336505D01*
Y341815D01*
X365588Y342381D01*
X365268Y342860D01*
X363388Y344740D01*
X362909Y345060D01*
X362343Y345173D01*
X358905D01*
X358802Y345281D01*
X358640Y345673D01*
X358982Y346265D01*
X359200Y347079D01*
Y347921D01*
X358982Y348735D01*
X358561Y349465D01*
X357965Y350061D01*
X357235Y350482D01*
X357228Y350484D01*
Y351862D01*
X357231Y351865D01*
X357300Y352215D01*
Y356746D01*
X357231Y357095D01*
X357033Y357391D01*
X356737Y357589D01*
X356388Y357659D01*
X354612D01*
X354263Y357589D01*
X353967Y357391D01*
X353769Y357095D01*
X353700Y356746D01*
Y352215D01*
X353769Y351865D01*
X353967Y351569D01*
X354263Y351372D01*
X354272Y351370D01*
Y350197D01*
X354035Y350061D01*
X353439Y349465D01*
X353018Y348735D01*
X352800Y347921D01*
Y347487D01*
X352355Y347303D01*
X351978Y347612D01*
Y351533D01*
X352033Y351569D01*
X352231Y351865D01*
X352300Y352215D01*
Y356746D01*
X352231Y357095D01*
X352033Y357391D01*
X351737Y357589D01*
X351388Y357659D01*
X349612D01*
X349263Y357589D01*
X348967Y357391D01*
X348769Y357095D01*
X348700Y356746D01*
Y352215D01*
X348769Y351865D01*
X348967Y351569D01*
X349022Y351533D01*
Y346990D01*
X349134Y346424D01*
X349455Y345944D01*
X353194Y342205D01*
X353674Y341884D01*
X354240Y341772D01*
X356805D01*
X357012Y341272D01*
X356670Y340679D01*
X356452Y339865D01*
Y339023D01*
X356670Y338209D01*
X357091Y337479D01*
X357687Y336883D01*
X358417Y336462D01*
X359231Y336244D01*
X359850D01*
X360244Y335850D01*
Y334857D01*
X360356Y334291D01*
X360677Y333812D01*
X380165Y314323D01*
X379974Y313861D01*
X374950D01*
X374746Y314277D01*
X374666Y314681D01*
X374345Y315160D01*
X344078Y345427D01*
Y345918D01*
X344578Y346125D01*
X344754Y345950D01*
X345562Y345615D01*
X346438D01*
X347246Y345950D01*
X347865Y346569D01*
X348200Y347377D01*
Y348253D01*
X347865Y349061D01*
X347478Y349448D01*
Y352815D01*
X347366Y353381D01*
X347300Y353479D01*
Y356746D01*
X347231Y357095D01*
X347033Y357391D01*
X346737Y357589D01*
X346388Y357659D01*
X344612D01*
X344578Y357652D01*
X344078Y358021D01*
Y369965D01*
X344090Y369975D01*
X344578Y370146D01*
X350955Y363770D01*
X351434Y363449D01*
X352000Y363337D01*
X356888D01*
X359022Y361203D01*
Y357788D01*
X358751Y357608D01*
X358487Y357212D01*
X358394Y356746D01*
Y354980D01*
X360500D01*
X362606D01*
Y356746D01*
X362513Y357212D01*
X362249Y357608D01*
X361978Y357788D01*
Y361815D01*
X361866Y362381D01*
X361545Y362860D01*
X358545Y365860D01*
X358066Y366181D01*
X357500Y366293D01*
X352612D01*
X347216Y371689D01*
X347249Y372022D01*
X347513Y372418D01*
X347606Y372884D01*
Y374650D01*
X345500D01*
Y375650D01*
X347606D01*
Y377415D01*
X347513Y377882D01*
X347249Y378277D01*
X347153Y378341D01*
Y378834D01*
X347266Y378881D01*
X347969Y379584D01*
X348349Y380500D01*
X345850D01*
Y381500D01*
X348349D01*
X347969Y382416D01*
X347826Y382560D01*
X348017Y383022D01*
X349009D01*
X349022Y383009D01*
Y378097D01*
X348967Y378061D01*
X348769Y377765D01*
X348700Y377415D01*
Y372884D01*
X348769Y372535D01*
X348967Y372239D01*
X349263Y372041D01*
X349612Y371972D01*
X351388D01*
X351737Y372041D01*
X352033Y372239D01*
X352231Y372535D01*
X352300Y372884D01*
Y377415D01*
X352231Y377765D01*
X352033Y378061D01*
X351978Y378097D01*
Y383621D01*
X351866Y384187D01*
X351545Y384667D01*
X351152Y385060D01*
X351344Y385522D01*
X352676D01*
X353689Y384509D01*
Y375482D01*
X353700Y375428D01*
Y372884D01*
X353769Y372535D01*
X353967Y372239D01*
X354263Y372041D01*
X354612Y371972D01*
X356388D01*
X356737Y372041D01*
X357033Y372239D01*
X357231Y372535D01*
X357300Y372884D01*
Y377415D01*
X357231Y377765D01*
X357033Y378061D01*
X356737Y378258D01*
X356646Y378276D01*
Y385121D01*
X356533Y385687D01*
X356213Y386167D01*
X354820Y387560D01*
X355011Y388022D01*
X355536D01*
X356101Y388134D01*
X356581Y388455D01*
X357538Y389412D01*
X357780Y389326D01*
X357885Y389250D01*
X360500D01*
Y388250D01*
X358001D01*
X358381Y387334D01*
X358772Y386943D01*
Y383697D01*
X358584Y383619D01*
X357881Y382916D01*
X357501Y382000D01*
X360000D01*
Y381000D01*
X357501D01*
X357881Y380084D01*
X358584Y379381D01*
X359503Y379000D01*
X359775D01*
X360034Y378500D01*
X359912Y378328D01*
X359612D01*
X359263Y378258D01*
X358967Y378061D01*
X358769Y377765D01*
X358700Y377415D01*
Y372884D01*
X358769Y372535D01*
X358967Y372239D01*
X359263Y372041D01*
X359612Y371972D01*
X361388D01*
X361737Y372041D01*
X362033Y372239D01*
X362231Y372535D01*
X362300Y372884D01*
Y375428D01*
X362311Y375482D01*
Y376248D01*
X367045Y380982D01*
X367366Y381462D01*
X367478Y382028D01*
Y386867D01*
X367865Y387254D01*
X368200Y388062D01*
Y388938D01*
X367865Y389746D01*
X367590Y390022D01*
X367797Y390522D01*
X373985D01*
X374551Y390634D01*
X375030Y390955D01*
X381857Y397781D01*
X382177Y398261D01*
X382290Y398826D01*
Y418703D01*
X388609Y425022D01*
X390203D01*
X390410Y424522D01*
X390135Y424246D01*
X389800Y423438D01*
Y422562D01*
X390135Y421754D01*
X390522Y421367D01*
Y417633D01*
X390385Y417496D01*
X390050Y416688D01*
Y415812D01*
X390285Y415246D01*
X390060Y414720D01*
X390018Y414683D01*
X389917Y414663D01*
X389294Y415286D01*
X389440Y415829D01*
Y416671D01*
X389222Y417485D01*
X388800Y418215D01*
X388204Y418811D01*
X387475Y419232D01*
X386661Y419450D01*
X385818D01*
X385004Y419232D01*
X384275Y418811D01*
X383679Y418215D01*
X383258Y417485D01*
X383040Y416671D01*
Y415829D01*
X383258Y415015D01*
X383679Y414285D01*
X384275Y413689D01*
X385004Y413268D01*
X385259Y413200D01*
X385193Y412700D01*
X384562D01*
X383754Y412365D01*
X383135Y411746D01*
X382800Y410938D01*
Y410062D01*
X383135Y409254D01*
X383499Y408890D01*
Y404523D01*
X383611Y403957D01*
X383932Y403478D01*
X391455Y395955D01*
X391934Y395634D01*
X392500Y395522D01*
X396600D01*
Y395015D01*
X402809D01*
X403927Y393897D01*
Y390187D01*
X404040Y389621D01*
X404360Y389142D01*
X405255Y388247D01*
X405734Y387927D01*
X406300Y387814D01*
X430178D01*
X430743Y387927D01*
X431223Y388247D01*
X435812Y392837D01*
X445670D01*
Y390662D01*
X452582D01*
Y397968D01*
X445670D01*
Y395793D01*
X435200D01*
X434634Y395681D01*
X434155Y395360D01*
X429565Y390771D01*
X412889D01*
X412681Y391271D01*
X413061Y391650D01*
X413482Y392380D01*
X413700Y393194D01*
Y394036D01*
X413482Y394850D01*
X413061Y395580D01*
X412465Y396176D01*
X411735Y396597D01*
X410921Y396815D01*
X410079D01*
X409536Y396670D01*
X403700Y402506D01*
X403721Y402587D01*
X403898Y402668D01*
X404269Y402705D01*
X404774Y402199D01*
X405504Y401778D01*
X406318Y401560D01*
X407160D01*
X407974Y401778D01*
X408704Y402199D01*
X409300Y402795D01*
X409721Y403525D01*
X409939Y404339D01*
Y405181D01*
X409904Y405313D01*
X411982Y407391D01*
X412302Y407870D01*
X412415Y408436D01*
Y409679D01*
X412382Y409844D01*
X412735Y410314D01*
X412793Y410337D01*
X417500D01*
Y410015D01*
X424400D01*
Y413615D01*
X417500D01*
Y413293D01*
X413012D01*
X407278Y419027D01*
Y428665D01*
X407166Y429231D01*
X406845Y429710D01*
X404496Y432060D01*
X404688Y432522D01*
X405403D01*
X408022Y429903D01*
Y421815D01*
X408134Y421249D01*
X408455Y420770D01*
X413455Y415770D01*
X413934Y415449D01*
X414500Y415337D01*
X417500D01*
Y415015D01*
X424400D01*
Y418615D01*
X417500D01*
Y418293D01*
X415112D01*
X410978Y422427D01*
Y430515D01*
X410866Y431081D01*
X410545Y431560D01*
X407060Y435045D01*
X406581Y435366D01*
X406015Y435478D01*
X325185D01*
X324619Y435366D01*
X324140Y435045D01*
X309333Y420239D01*
X308481Y420468D01*
X307519D01*
X306590Y420219D01*
X305757Y419738D01*
X305077Y419058D01*
X304596Y418225D01*
X304347Y417296D01*
Y416334D01*
X304596Y415405D01*
X305077Y414572D01*
X305656Y413993D01*
X305512Y413493D01*
X302300D01*
X301734Y413381D01*
X301255Y413060D01*
X277555Y389360D01*
X277234Y388881D01*
X277122Y388315D01*
Y201815D01*
X277234Y201249D01*
X277555Y200770D01*
X282748Y195577D01*
X283227Y195256D01*
X283793Y195144D01*
X302544D01*
Y193560D01*
X309456D01*
Y195144D01*
X313266D01*
X315455Y192955D01*
X315934Y192634D01*
X316500Y192522D01*
X320953D01*
Y191135D01*
X329047D01*
Y195196D01*
X329508Y195387D01*
X343026Y181870D01*
X343506Y181549D01*
X344072Y181437D01*
X491700D01*
X492266Y181549D01*
X492745Y181870D01*
X498045Y187170D01*
X498366Y187649D01*
X498478Y188215D01*
Y229815D01*
X498366Y230381D01*
X498045Y230860D01*
X495545Y233360D01*
X495153Y233623D01*
Y235771D01*
X487847D01*
Y234266D01*
X487347Y234058D01*
X483478Y237927D01*
Y244515D01*
X483366Y245081D01*
X483045Y245560D01*
X478045Y250560D01*
X477566Y250881D01*
X477000Y250993D01*
X474680D01*
Y253337D01*
X483288D01*
X483855Y252770D01*
X484334Y252449D01*
X484900Y252337D01*
X484917D01*
X485206Y251956D01*
Y248194D01*
X490739D01*
Y248837D01*
X502888D01*
X503955Y247770D01*
X504434Y247449D01*
X505000Y247337D01*
X510954D01*
Y245635D01*
X519046D01*
Y250456D01*
X521545Y252955D01*
X521866Y253434D01*
X521978Y254000D01*
Y274000D01*
X521866Y274566D01*
X521545Y275045D01*
X519046Y277544D01*
Y281456D01*
X521545Y283955D01*
X521866Y284434D01*
X521978Y285000D01*
Y303000D01*
X521866Y303566D01*
X521545Y304045D01*
X518047Y307544D01*
Y312365D01*
X509953D01*
Y310978D01*
X501447D01*
X500545Y311880D01*
X500066Y312200D01*
X499500Y312313D01*
X498610D01*
X498322Y312694D01*
Y316337D01*
X498322Y316456D01*
X498610Y316837D01*
X500200D01*
X500766Y316949D01*
X501245Y317270D01*
X502627Y318652D01*
X509953D01*
Y317265D01*
X518047D01*
Y322995D01*
X509953D01*
Y321608D01*
X502015D01*
X501449Y321496D01*
X500970Y321175D01*
X499588Y319793D01*
X489267D01*
Y320196D01*
X487978D01*
Y429010D01*
X487866Y429576D01*
X487545Y430056D01*
X478306Y439295D01*
X477826Y439616D01*
X477260Y439728D01*
D02*
G37*
G36*
X457680Y384697D02*
X391300D01*
Y373300D01*
X457680D01*
Y384697D01*
D02*
G37*
G36*
X362606Y353980D02*
X360500D01*
X358394D01*
Y352215D01*
X358487Y351748D01*
X358751Y351353D01*
X359062Y351145D01*
X359134Y350781D01*
X359455Y350301D01*
X401363Y308393D01*
X401000Y307765D01*
X400746Y306815D01*
X404000D01*
Y310069D01*
X403896Y310041D01*
X362383Y351554D01*
X362513Y351748D01*
X362606Y352215D01*
Y353980D01*
D02*
G37*
G36*
X404000Y305815D02*
X400746D01*
X401000Y304865D01*
X401495Y304009D01*
X402194Y303309D01*
X403050Y302815D01*
X404000Y302561D01*
Y305815D01*
D02*
G37*
%LPD*%
G36*
X371469Y429560D02*
X363244Y421334D01*
X362782Y421526D01*
Y421615D01*
X362447Y422424D01*
X361828Y423043D01*
X361019Y423378D01*
X360144D01*
X359335Y423043D01*
X358717Y422424D01*
X358694Y422369D01*
X357513D01*
X356947Y422257D01*
X356467Y421936D01*
X352697Y418165D01*
X352296Y418344D01*
X352228Y418404D01*
Y421346D01*
X352116Y421912D01*
X351795Y422392D01*
X349892Y424295D01*
X349412Y424616D01*
X348846Y424728D01*
X342750D01*
X342184Y424616D01*
X341705Y424295D01*
X331256Y413847D01*
X330986Y413886D01*
X330756Y413981D01*
Y415177D01*
X327500D01*
Y411815D01*
X326500D01*
Y415177D01*
X324706D01*
X324515Y415639D01*
X338897Y430022D01*
X371277D01*
X371469Y429560D01*
D02*
G37*
G36*
X404322Y428043D02*
Y418729D01*
X403942Y418409D01*
X403669Y418482D01*
X403500Y418609D01*
Y418615D01*
X396600D01*
Y415015D01*
X403500D01*
X403500Y415015D01*
Y415015D01*
X403839Y414685D01*
X409458Y409066D01*
Y409049D01*
X408086Y407677D01*
X407974Y407742D01*
X407160Y407960D01*
X406318D01*
X405504Y407742D01*
X404774Y407320D01*
X404178Y406725D01*
X404000Y406416D01*
X403500Y406550D01*
Y408615D01*
X396600D01*
Y408203D01*
X394970D01*
X394741Y408599D01*
X394145Y409195D01*
X393416Y409616D01*
X392602Y409834D01*
X391759D01*
X390945Y409616D01*
X390216Y409195D01*
X389620Y408599D01*
X389198Y407870D01*
X388981Y407056D01*
Y406213D01*
X389198Y405399D01*
X389620Y404670D01*
X390216Y404074D01*
X390945Y403653D01*
X391759Y403435D01*
X392602D01*
X393416Y403653D01*
X394145Y404074D01*
X394741Y404670D01*
X395074Y405246D01*
X396600D01*
Y405015D01*
X403039D01*
X403500Y405015D01*
X403539Y404531D01*
Y404339D01*
X403611Y404069D01*
X403215Y403615D01*
X396600D01*
Y400015D01*
X402009D01*
X402947Y399077D01*
X402756Y398615D01*
X396600D01*
Y398478D01*
X393112D01*
X386455Y405135D01*
Y408844D01*
X386865Y409254D01*
X387200Y410062D01*
Y410938D01*
X386865Y411746D01*
X386246Y412365D01*
X385742Y412574D01*
X385818Y413050D01*
X386661D01*
X387203Y413195D01*
X388571Y411828D01*
X389050Y411508D01*
X389616Y411395D01*
X390029D01*
X390655Y410770D01*
X391134Y410449D01*
X391700Y410337D01*
X396600D01*
Y410015D01*
X403500D01*
Y413615D01*
X396600D01*
Y413293D01*
X392453D01*
X392248Y413556D01*
X392471Y414050D01*
X392688D01*
X393496Y414385D01*
X394115Y415004D01*
X394450Y415812D01*
Y416688D01*
X394115Y417496D01*
X393496Y418115D01*
X393478Y418122D01*
Y421367D01*
X393865Y421754D01*
X394200Y422562D01*
Y423438D01*
X394126Y423616D01*
X394550Y423899D01*
X395530Y422920D01*
X396009Y422599D01*
X396555Y422491D01*
X396572Y422474D01*
Y422165D01*
X396600Y422022D01*
Y420015D01*
X403500D01*
Y423615D01*
X399423D01*
X399416Y423652D01*
X399095Y424132D01*
X398712Y424515D01*
X398919Y425015D01*
X403500D01*
Y428167D01*
X403945Y428352D01*
X404322Y428043D01*
D02*
G37*
G36*
X345698Y421310D02*
X345635Y421246D01*
X345300Y420438D01*
Y419562D01*
X345522Y419027D01*
Y417082D01*
X342855D01*
Y415793D01*
X339500D01*
X338934Y415681D01*
X338455Y415360D01*
X338109Y415015D01*
X337562D01*
X337137Y414839D01*
X336853Y415263D01*
X343362Y421772D01*
X345507D01*
X345698Y421310D01*
D02*
G37*
G36*
X336754Y432060D02*
X318188Y413493D01*
X310488D01*
X310344Y413993D01*
X310923Y414572D01*
X311404Y415405D01*
X311653Y416334D01*
Y417296D01*
X311424Y418149D01*
X325797Y432522D01*
X336562D01*
X336754Y432060D01*
D02*
G37*
G36*
X350059Y411248D02*
X351445D01*
Y411548D01*
X352621D01*
X352813Y411086D01*
X351073Y409346D01*
X350752Y408867D01*
X350640Y408301D01*
Y406949D01*
X350059D01*
Y403882D01*
X349059D01*
Y406949D01*
X347673D01*
Y406649D01*
X342855D01*
Y405360D01*
X340882D01*
X340316Y405248D01*
X339837Y404927D01*
X339609Y404700D01*
X339062D01*
X338254Y404365D01*
X337635Y403746D01*
X337300Y402938D01*
Y402062D01*
X337635Y401254D01*
X338254Y400635D01*
X339062Y400300D01*
X339938D01*
X340746Y400635D01*
X341365Y401254D01*
X341700Y402062D01*
Y402403D01*
X342855D01*
Y401115D01*
X344369D01*
X344560Y400653D01*
X344155Y400248D01*
X344014D01*
X343206Y399913D01*
X342587Y399294D01*
X342252Y398486D01*
Y397610D01*
X342587Y396802D01*
X342910Y396478D01*
X342703Y395978D01*
X341112D01*
X333728Y403362D01*
Y412138D01*
X335553Y413962D01*
X335976Y413679D01*
X335800Y413253D01*
Y412377D01*
X336135Y411569D01*
X336754Y410950D01*
X337562Y410615D01*
X338438D01*
X339246Y410950D01*
X339865Y411569D01*
X340200Y412377D01*
Y412837D01*
X342855D01*
Y411548D01*
X347673D01*
Y411248D01*
X349059D01*
Y414315D01*
X350059D01*
Y411248D01*
D02*
G37*
G36*
X386465Y427060D02*
X379766Y420360D01*
X379446Y419881D01*
X379333Y419315D01*
Y399439D01*
X373373Y393478D01*
X367777D01*
X367625Y393978D01*
X367964Y394205D01*
X368843Y395083D01*
X369163Y395563D01*
X369276Y396129D01*
Y399750D01*
Y401922D01*
X373653D01*
Y408834D01*
X367940D01*
X367797Y408862D01*
X364825D01*
X363844Y409843D01*
X364036Y410304D01*
X364125D01*
X364934Y410639D01*
X365321Y411026D01*
X366347D01*
Y409796D01*
X373653D01*
Y414617D01*
X374586Y415550D01*
X375321D01*
X376135Y415768D01*
X376865Y416189D01*
X377461Y416785D01*
X377882Y417515D01*
X378100Y418329D01*
Y419171D01*
X377882Y419985D01*
X377461Y420715D01*
X376865Y421311D01*
X376135Y421732D01*
X375321Y421950D01*
X374479D01*
X373665Y421732D01*
X372935Y421311D01*
X372339Y420715D01*
X371918Y419985D01*
X371700Y419171D01*
Y418329D01*
X371918Y417515D01*
X372083Y417229D01*
X371562Y416708D01*
X366347D01*
Y413983D01*
X365321D01*
X364934Y414370D01*
X364125Y414705D01*
X363250D01*
X363228Y414696D01*
X362728Y415030D01*
Y416638D01*
X373612Y427522D01*
X386274D01*
X386465Y427060D01*
D02*
G37*
G36*
X319201Y410107D02*
X309568Y400474D01*
X309526Y400498D01*
X308520Y400768D01*
X308500D01*
Y397315D01*
X311953D01*
Y397335D01*
X311683Y398341D01*
X311659Y398383D01*
X322782Y409506D01*
X323244Y409315D01*
Y408453D01*
X323244D01*
X323544Y408184D01*
Y403653D01*
X323432Y403486D01*
X323320Y402920D01*
Y400826D01*
X311870Y388293D01*
X311364D01*
X310923Y389058D01*
X310243Y389738D01*
X309410Y390219D01*
X308481Y390468D01*
X307519D01*
X306590Y390219D01*
X305757Y389738D01*
X305077Y389058D01*
X304596Y388225D01*
X304347Y387296D01*
Y386334D01*
X304576Y385482D01*
X283040Y363946D01*
X282578Y364138D01*
Y369303D01*
X306432Y393156D01*
X306474Y393132D01*
X307480Y392862D01*
X307500D01*
Y396315D01*
X304047D01*
Y396295D01*
X304317Y395289D01*
X304341Y395247D01*
X280540Y371446D01*
X280078Y371638D01*
Y387703D01*
X302912Y410537D01*
X306140D01*
X306274Y410037D01*
X305757Y409738D01*
X305077Y409058D01*
X304596Y408225D01*
X304347Y407296D01*
Y406334D01*
X304596Y405405D01*
X305077Y404572D01*
X305757Y403892D01*
X306590Y403411D01*
X307519Y403162D01*
X308481D01*
X309410Y403411D01*
X310243Y403892D01*
X310923Y404572D01*
X311404Y405405D01*
X311653Y406334D01*
Y407296D01*
X311404Y408225D01*
X310923Y409058D01*
X310243Y409738D01*
X309726Y410037D01*
X309859Y410537D01*
X318800D01*
X318954Y410567D01*
X319201Y410107D01*
D02*
G37*
G36*
X355507Y408945D02*
Y408856D01*
X355842Y408047D01*
X356461Y407428D01*
X356927Y407235D01*
X356827Y406735D01*
X356517D01*
X355708Y406400D01*
X355089Y405781D01*
X354754Y404973D01*
Y404098D01*
X355089Y403289D01*
X355708Y402670D01*
X356517Y402335D01*
X357088D01*
X358367Y401056D01*
X358584Y400619D01*
X358366Y400401D01*
X358019Y400055D01*
X355500D01*
X354934Y399942D01*
X354455Y399622D01*
X354311Y399478D01*
X352112D01*
X351276Y400315D01*
X351445Y400815D01*
X351821Y401115D01*
X353704D01*
Y406649D01*
X353596D01*
Y407688D01*
X355045Y409137D01*
X355507Y408945D01*
D02*
G37*
G36*
X485022Y428398D02*
Y396468D01*
X483415D01*
Y403415D01*
X483303Y403981D01*
X482982Y404460D01*
X477978Y409464D01*
Y416406D01*
X479956D01*
Y422424D01*
X480256Y422799D01*
X480256Y422799D01*
X480256Y422799D01*
Y425661D01*
X476500D01*
Y426661D01*
X480256D01*
Y429524D01*
X476978D01*
Y430812D01*
X477649Y431199D01*
X478301Y431851D01*
X478761Y432649D01*
X479000Y433539D01*
Y433766D01*
X479462Y433958D01*
X485022Y428398D01*
D02*
G37*
G36*
X318272Y380753D02*
Y376961D01*
X317772Y376754D01*
X317465Y377061D01*
X316735Y377482D01*
X315921Y377700D01*
X315079D01*
X314265Y377482D01*
X313535Y377061D01*
X312939Y376465D01*
X312518Y375735D01*
X312300Y374921D01*
Y374079D01*
X312518Y373265D01*
X312939Y372535D01*
X313352Y372123D01*
Y371539D01*
X312358Y370545D01*
X312037Y370066D01*
X311925Y369500D01*
Y306714D01*
X312037Y306149D01*
X312358Y305669D01*
X312557Y305470D01*
X313037Y305149D01*
X313603Y305037D01*
X316953D01*
Y303978D01*
X304927D01*
X291350Y317556D01*
Y321074D01*
X294245Y323970D01*
X294566Y324449D01*
X294678Y325015D01*
Y327471D01*
X295178Y327605D01*
X295207Y327556D01*
X295741Y327022D01*
X296394Y326645D01*
X297123Y326450D01*
X297877D01*
X298606Y326645D01*
X299259Y327022D01*
X299793Y327556D01*
X300170Y328209D01*
X300365Y328938D01*
Y329692D01*
X300170Y330421D01*
X299793Y331074D01*
X299259Y331608D01*
X298606Y331985D01*
X297877Y332180D01*
X297123D01*
X296394Y331985D01*
X295741Y331608D01*
X295207Y331074D01*
X295178Y331025D01*
X294678Y331159D01*
Y335815D01*
X294566Y336381D01*
X294245Y336860D01*
X285140Y345965D01*
X285228Y346465D01*
X292350D01*
Y354165D01*
X285078D01*
Y357585D01*
X285578Y357792D01*
X286136Y357235D01*
X287014Y356728D01*
X287993Y356465D01*
X289007D01*
X289986Y356728D01*
X290864Y357235D01*
X291581Y357951D01*
X292087Y358829D01*
X292350Y359808D01*
Y360822D01*
X292087Y361801D01*
X291581Y362679D01*
X290864Y363395D01*
X289986Y363902D01*
X289007Y364165D01*
X288147D01*
X287903Y364627D01*
X303921Y380645D01*
X304347Y380364D01*
X304347Y380011D01*
Y373162D01*
X311653D01*
Y380468D01*
X304835D01*
X304451Y380468D01*
X304170Y380894D01*
X306666Y383391D01*
X307519Y383162D01*
X308481D01*
X309410Y383411D01*
X310243Y383892D01*
X310923Y384572D01*
X311364Y385337D01*
X313688D01*
X318272Y380753D01*
D02*
G37*
G36*
X322427Y395345D02*
X322800Y395131D01*
Y394377D01*
X322997Y393902D01*
X321955Y392860D01*
X321634Y392381D01*
X321522Y391815D01*
Y382224D01*
X321022Y382072D01*
X320795Y382410D01*
X315415Y387790D01*
X322338Y395367D01*
X322427Y395345D01*
D02*
G37*
G36*
X337893Y390955D02*
X338038Y390857D01*
X338104Y390216D01*
X336555Y388667D01*
X336234Y388187D01*
X336122Y387621D01*
Y314936D01*
X335705D01*
Y314534D01*
X329682D01*
X325046Y314574D01*
Y315995D01*
X317382D01*
Y343767D01*
X320795Y347180D01*
X320804Y347193D01*
X321447Y347256D01*
X321754Y346950D01*
X322562Y346615D01*
X323438D01*
X324246Y346950D01*
X324865Y347569D01*
X325200Y348377D01*
Y349253D01*
X324865Y350061D01*
X324478Y350448D01*
Y391203D01*
X326045Y392770D01*
X326135Y392904D01*
X326246Y392950D01*
X326865Y393569D01*
X327200Y394377D01*
Y395253D01*
X326865Y396061D01*
X326246Y396680D01*
X325438Y397015D01*
X324562D01*
X324496Y396987D01*
X324201Y397407D01*
X325472Y398797D01*
X330050D01*
X337893Y390955D01*
D02*
G37*
G36*
X318272Y372039D02*
Y348838D01*
X315344Y345910D01*
X314882Y346101D01*
Y368888D01*
X315876Y369882D01*
X316196Y370361D01*
X316309Y370927D01*
Y371404D01*
X316735Y371518D01*
X317465Y371939D01*
X317772Y372246D01*
X318272Y372039D01*
D02*
G37*
G36*
X291722Y335203D02*
Y331302D01*
X291222Y331168D01*
X290821Y331863D01*
X290048Y332635D01*
X289102Y333182D01*
X288046Y333465D01*
X288000D01*
Y329315D01*
X287500D01*
Y328815D01*
X283350D01*
Y328769D01*
X283633Y327713D01*
X283697Y327603D01*
X281555Y325460D01*
X281234Y324981D01*
X281122Y324415D01*
Y313115D01*
X281234Y312549D01*
X281555Y312070D01*
X295169Y298455D01*
X294977Y297993D01*
X292000D01*
X291434Y297881D01*
X290955Y297560D01*
X289055Y295660D01*
X288734Y295181D01*
X288622Y294615D01*
Y237915D01*
X288734Y237349D01*
X289055Y236870D01*
X315369Y210555D01*
X315177Y210093D01*
X303200D01*
X302634Y209981D01*
X302155Y209660D01*
X300355Y207860D01*
X300034Y207381D01*
X299922Y206815D01*
Y198100D01*
X284405D01*
X280078Y202427D01*
Y333993D01*
X280540Y334184D01*
X283697Y331027D01*
X283633Y330917D01*
X283350Y329861D01*
Y329815D01*
X287000D01*
Y333465D01*
X286954D01*
X285898Y333182D01*
X285788Y333118D01*
X282578Y336327D01*
Y343692D01*
X283040Y343884D01*
X291722Y335203D01*
D02*
G37*
G36*
X472744Y422799D02*
X472744D01*
X473044Y422531D01*
Y416406D01*
X475022D01*
Y408852D01*
X475134Y408286D01*
X475455Y407807D01*
X480459Y402803D01*
Y396468D01*
X478481D01*
Y389162D01*
X485022D01*
Y320196D01*
X483733D01*
X483733Y316434D01*
X483278Y316326D01*
X474680D01*
Y319862D01*
X469278D01*
Y323303D01*
X475108Y329133D01*
X475429Y329612D01*
X475541Y330178D01*
Y389162D01*
X477519D01*
Y396468D01*
X470607D01*
Y395793D01*
X461478D01*
Y408874D01*
X461965Y409154D01*
X462561Y409750D01*
X462982Y410480D01*
X463200Y411294D01*
Y412136D01*
X462982Y412950D01*
X462561Y413680D01*
X461965Y414276D01*
X461478Y414557D01*
Y416060D01*
X463456D01*
X463456Y422077D01*
X463756Y422453D01*
X463756Y422560D01*
Y424337D01*
X468200D01*
X468766Y424449D01*
X469116Y424683D01*
X472744D01*
Y422799D01*
D02*
G37*
G36*
X341522Y340267D02*
Y320563D01*
X341521Y320531D01*
X341300Y315395D01*
X341239Y314936D01*
X341239Y314936D01*
X339078D01*
Y342057D01*
X339540Y342248D01*
X341522Y340267D01*
D02*
G37*
G36*
X452791Y305833D02*
Y273718D01*
X452904Y273153D01*
X453224Y272673D01*
X453704Y272353D01*
X454269Y272240D01*
X467858D01*
X468065Y271740D01*
X460140Y263815D01*
X459819Y263335D01*
X459707Y262769D01*
Y258861D01*
X458478D01*
Y262515D01*
X458366Y263081D01*
X458045Y263560D01*
X446245Y275360D01*
X445766Y275681D01*
X445200Y275793D01*
X438700D01*
X438687Y275813D01*
X438000Y276272D01*
X437189Y276434D01*
X430102D01*
X429292Y276272D01*
X428604Y275813D01*
X428145Y275126D01*
X427984Y274315D01*
X428145Y273504D01*
X428604Y272817D01*
X429292Y272358D01*
X430102Y272196D01*
X437189D01*
X438000Y272358D01*
X438687Y272817D01*
X438700Y272837D01*
X444588D01*
X455522Y261903D01*
Y250765D01*
X455634Y250199D01*
X455955Y249720D01*
X457205Y248470D01*
X457684Y248149D01*
X458250Y248037D01*
X461860D01*
X462004Y247646D01*
X462011Y247537D01*
X461439Y246965D01*
X461023Y246243D01*
X459250D01*
X458684Y246131D01*
X458205Y245810D01*
X452455Y240060D01*
X452134Y239581D01*
X452022Y239015D01*
Y235995D01*
X449454D01*
X449078Y236297D01*
Y237603D01*
X452445Y240970D01*
X452766Y241449D01*
X452878Y242015D01*
Y246600D01*
X452766Y247166D01*
X452445Y247645D01*
X451055Y249036D01*
X451200Y249579D01*
Y250421D01*
X450982Y251235D01*
X450561Y251965D01*
X449965Y252561D01*
X449235Y252982D01*
X448421Y253200D01*
X447579D01*
X446765Y252982D01*
X446035Y252561D01*
X445439Y251965D01*
X445018Y251235D01*
X444800Y250421D01*
Y249579D01*
X445018Y248765D01*
X445439Y248035D01*
X446035Y247439D01*
X446765Y247018D01*
X447579Y246800D01*
X448421D01*
X448964Y246945D01*
X449922Y245988D01*
Y242627D01*
X446555Y239260D01*
X446234Y238781D01*
X446122Y238215D01*
Y224927D01*
X444516Y223322D01*
X444452Y223335D01*
X444263Y223843D01*
X444277Y223879D01*
X444682Y224580D01*
X444900Y225394D01*
Y226236D01*
X444682Y227050D01*
X444261Y227780D01*
X443665Y228376D01*
X443178Y228657D01*
Y258065D01*
X443066Y258631D01*
X442745Y259110D01*
X441495Y260360D01*
X441016Y260681D01*
X440450Y260793D01*
X438700D01*
X438687Y260813D01*
X438000Y261272D01*
X437322Y261407D01*
Y261917D01*
X438117Y262075D01*
X438903Y262601D01*
X439061Y262837D01*
X439787D01*
X440174Y262166D01*
X440826Y261514D01*
X441624Y261053D01*
X442475Y260825D01*
Y264315D01*
Y267805D01*
X441624Y267577D01*
X440826Y267116D01*
X440174Y266464D01*
X439787Y265793D01*
X439061D01*
X438903Y266029D01*
X438117Y266555D01*
X437322Y266713D01*
Y267223D01*
X438000Y267358D01*
X438687Y267817D01*
X439146Y268504D01*
X439308Y269315D01*
X439146Y270126D01*
X438687Y270813D01*
X438000Y271272D01*
X437189Y271434D01*
X430102D01*
X429292Y271272D01*
X428604Y270813D01*
X428591Y270793D01*
X428150D01*
X427584Y270681D01*
X427105Y270360D01*
X425855Y269110D01*
X425534Y268631D01*
X425422Y268065D01*
Y266498D01*
X424922Y266346D01*
X424845Y266460D01*
X420945Y270360D01*
X420466Y270681D01*
X419900Y270793D01*
X419409D01*
X419396Y270813D01*
X418708Y271272D01*
X417898Y271434D01*
X410811D01*
X410000Y271272D01*
X409313Y270813D01*
X408854Y270126D01*
X408692Y269315D01*
X408854Y268504D01*
X409313Y267817D01*
X410000Y267358D01*
X410811Y267196D01*
X417898D01*
X418708Y267358D01*
X419343Y267781D01*
X422053Y265071D01*
X422026Y264937D01*
X421484Y264772D01*
X420895Y265360D01*
X420416Y265681D01*
X419850Y265793D01*
X419409D01*
X419396Y265813D01*
X418708Y266272D01*
X417898Y266434D01*
X410811D01*
X410000Y266272D01*
X409313Y265813D01*
X408854Y265126D01*
X408692Y264315D01*
X408854Y263504D01*
X409313Y262817D01*
X410000Y262358D01*
X410811Y262196D01*
X417898D01*
X418708Y262358D01*
X419225Y262703D01*
X419622Y262392D01*
Y261264D01*
X419122Y260996D01*
X418708Y261272D01*
X417898Y261434D01*
X410811D01*
X410000Y261272D01*
X409313Y260813D01*
X409300Y260793D01*
X407000D01*
X406434Y260681D01*
X405955Y260360D01*
X405948Y260353D01*
X405555Y260524D01*
X405478Y260591D01*
Y262659D01*
X405965Y262939D01*
X406561Y263535D01*
X406982Y264265D01*
X407200Y265079D01*
Y265921D01*
X406982Y266735D01*
X406561Y267465D01*
X405965Y268061D01*
X405235Y268482D01*
X404421Y268700D01*
X403579D01*
X402765Y268482D01*
X402035Y268061D01*
X401728Y267754D01*
X401228Y267961D01*
Y268497D01*
X405568Y272837D01*
X409300D01*
X409313Y272817D01*
X410000Y272358D01*
X410811Y272196D01*
X417898D01*
X418708Y272358D01*
X419396Y272817D01*
X419855Y273504D01*
X420016Y274315D01*
X419855Y275126D01*
X419396Y275813D01*
X418708Y276272D01*
X417898Y276434D01*
X415833D01*
Y277196D01*
X417898D01*
X418708Y277358D01*
X419396Y277817D01*
X419855Y278504D01*
X420016Y279315D01*
X419855Y280126D01*
X419581Y280537D01*
X419848Y281037D01*
X428152D01*
X428419Y280537D01*
X428145Y280126D01*
X427984Y279315D01*
X428145Y278504D01*
X428604Y277817D01*
X429292Y277358D01*
X430102Y277196D01*
X437189D01*
X438000Y277358D01*
X438687Y277817D01*
X439146Y278504D01*
X439308Y279315D01*
X439146Y280126D01*
X438687Y280813D01*
X438000Y281272D01*
X437189Y281434D01*
X431578D01*
Y282515D01*
X431466Y283081D01*
X431145Y283560D01*
X430666Y283881D01*
X430100Y283993D01*
X403000D01*
X402434Y283881D01*
X401955Y283560D01*
X397109Y278715D01*
X396567Y278880D01*
X396565Y278889D01*
X429012Y311337D01*
X432565D01*
X432631Y310837D01*
X432550Y310815D01*
X431694Y310320D01*
X430995Y309621D01*
X430500Y308765D01*
X430246Y307815D01*
X437754D01*
X437500Y308765D01*
X437198Y309287D01*
X437564Y309653D01*
X437666Y309595D01*
X438545Y309359D01*
X439455D01*
X440334Y309595D01*
X441122Y310050D01*
X441765Y310693D01*
X442220Y311481D01*
X442456Y312360D01*
Y313270D01*
X442220Y314149D01*
X441765Y314937D01*
X441122Y315580D01*
X440334Y316035D01*
X439455Y316271D01*
X438545D01*
X437666Y316035D01*
X436878Y315580D01*
X436235Y314937D01*
X435863Y314293D01*
X428400D01*
X427834Y314181D01*
X427355Y313860D01*
X413334Y299840D01*
X412886Y300099D01*
X412956Y300360D01*
Y301270D01*
X412720Y302149D01*
X412265Y302937D01*
X411890Y303313D01*
X411854Y303984D01*
X429391Y321522D01*
X431736D01*
X431819Y321022D01*
X431235Y320437D01*
X430780Y319649D01*
X430544Y318770D01*
Y317860D01*
X430780Y316981D01*
X431235Y316193D01*
X431878Y315550D01*
X432666Y315095D01*
X433545Y314859D01*
X434455D01*
X435334Y315095D01*
X436122Y315550D01*
X436765Y316193D01*
X437220Y316981D01*
X437456Y317860D01*
Y318770D01*
X437220Y319649D01*
X436765Y320437D01*
X436181Y321022D01*
X436264Y321522D01*
X437103D01*
X452791Y305833D01*
D02*
G37*
G36*
X329662Y311577D02*
X329668Y311578D01*
X329675Y311577D01*
X335705D01*
Y311174D01*
X340756D01*
X341102Y310813D01*
X340957Y307456D01*
X335705D01*
Y307053D01*
X335012D01*
X331806Y310260D01*
X331326Y310580D01*
X330760Y310693D01*
X325046D01*
Y311262D01*
X325401Y311614D01*
X329662Y311577D01*
D02*
G37*
G36*
X383322Y311167D02*
Y295038D01*
X382860Y294846D01*
X379293Y298412D01*
Y305769D01*
X380680D01*
Y313155D01*
X381142Y313346D01*
X383322Y311167D01*
D02*
G37*
G36*
X467234Y309349D02*
X467800Y309237D01*
X483733D01*
Y308954D01*
X489267D01*
Y309356D01*
X498888D01*
X499789Y308455D01*
X500269Y308134D01*
X500835Y308022D01*
X509953D01*
Y306635D01*
X514775D01*
X519022Y302388D01*
Y292995D01*
X510954D01*
Y291608D01*
X501975D01*
X501409Y291496D01*
X500929Y291175D01*
X499288Y289534D01*
X489739D01*
Y289936D01*
X487102D01*
X474555Y302483D01*
X474700Y303026D01*
Y303869D01*
X474482Y304682D01*
X474061Y305412D01*
X473465Y306008D01*
X472735Y306429D01*
X471921Y306647D01*
X471079D01*
X470265Y306429D01*
X469535Y306008D01*
X468939Y305412D01*
X468518Y304682D01*
X468300Y303869D01*
Y303026D01*
X468518Y302212D01*
X468939Y301482D01*
X469535Y300887D01*
X470265Y300465D01*
X471079Y300247D01*
X471921D01*
X472464Y300393D01*
X484205Y288651D01*
Y286174D01*
X483917Y285793D01*
X480843D01*
X479209Y287427D01*
Y288912D01*
X479097Y289478D01*
X478776Y289957D01*
X478296Y290278D01*
X477731Y290390D01*
X464899D01*
X464334Y290278D01*
X463854Y289957D01*
X463533Y289478D01*
X463421Y288912D01*
Y286142D01*
X462641Y285362D01*
X458390D01*
X458307Y285861D01*
X466245Y293800D01*
X466566Y294280D01*
X466678Y294846D01*
Y309119D01*
X467178Y309386D01*
X467234Y309349D01*
D02*
G37*
G36*
X459707Y321203D02*
Y319862D01*
X458320D01*
Y311769D01*
X463722D01*
Y295458D01*
X456210Y287946D01*
X455748Y288138D01*
Y306446D01*
X455635Y307011D01*
X455315Y307491D01*
X439246Y323560D01*
X439437Y324022D01*
X456888D01*
X459707Y321203D01*
D02*
G37*
G36*
X324622Y299127D02*
X319955Y294460D01*
X319634Y293981D01*
X319522Y293415D01*
Y287495D01*
X316878D01*
Y299166D01*
X316954Y299635D01*
X324622D01*
Y299127D01*
D02*
G37*
G36*
X333355Y304529D02*
X333834Y304209D01*
X334400Y304096D01*
X335705D01*
Y303694D01*
X340434D01*
X340780Y303333D01*
X340067Y286801D01*
X339739Y286436D01*
X334206D01*
Y286034D01*
X328976D01*
X328600Y286108D01*
X324547D01*
Y287495D01*
X322478D01*
Y292803D01*
X327145Y297470D01*
X327466Y297949D01*
X327578Y298515D01*
Y306515D01*
X327466Y307081D01*
X327362Y307236D01*
X327629Y307736D01*
X330148D01*
X333355Y304529D01*
D02*
G37*
G36*
X510954Y287265D02*
X519022D01*
Y285612D01*
X515775Y282365D01*
X510954D01*
Y276635D01*
X515774D01*
X519022Y273388D01*
Y261995D01*
X511700D01*
Y262236D01*
X511482Y263050D01*
X511061Y263780D01*
X510465Y264376D01*
X509735Y264797D01*
X508921Y265015D01*
X508079D01*
X507265Y264797D01*
X506535Y264376D01*
X505939Y263780D01*
X505518Y263050D01*
X505300Y262236D01*
Y261394D01*
X505518Y260580D01*
X505939Y259850D01*
X506256Y259534D01*
X506049Y259034D01*
X490739D01*
Y259436D01*
X485206D01*
Y256288D01*
X484705Y256021D01*
X484466Y256181D01*
X483900Y256293D01*
X474680D01*
Y258861D01*
X468950D01*
Y250993D01*
X464050D01*
Y258861D01*
X462663D01*
Y262157D01*
X476276Y275770D01*
X476596Y276249D01*
X476709Y276815D01*
Y285092D01*
X477171Y285284D01*
X479185Y283270D01*
X479665Y282949D01*
X480231Y282837D01*
X483917D01*
X484205Y282456D01*
X484205Y282337D01*
Y278694D01*
X489739D01*
Y282337D01*
X489739Y282456D01*
X490028Y282837D01*
X493261D01*
Y282434D01*
X498795D01*
Y286196D01*
X499083Y286577D01*
X499900D01*
X500466Y286689D01*
X500945Y287010D01*
X502587Y288652D01*
X510954D01*
Y287265D01*
D02*
G37*
G36*
X376337Y297800D02*
X376449Y297234D01*
X376770Y296755D01*
X380822Y292703D01*
Y285861D01*
X375450D01*
Y278289D01*
X375278Y278168D01*
X374778Y278427D01*
Y305340D01*
X374950Y305769D01*
X376337D01*
Y297800D01*
D02*
G37*
G36*
X328675Y283077D02*
X334206D01*
Y282674D01*
X339739D01*
X340022Y282291D01*
Y279339D01*
X339739Y278956D01*
X334206D01*
Y278553D01*
X330175D01*
X329609Y278441D01*
X329129Y278120D01*
X326488Y275478D01*
X324547D01*
Y276865D01*
X316878D01*
Y281765D01*
X324547D01*
Y283152D01*
X328299D01*
X328675Y283077D01*
D02*
G37*
G36*
X297608Y286859D02*
X297984Y286559D01*
Y286559D01*
X299868D01*
Y280462D01*
X299980Y279896D01*
X300215Y279546D01*
Y274071D01*
X298331D01*
Y274071D01*
X298062Y273771D01*
X296478D01*
Y280315D01*
X296366Y280881D01*
X296132Y281231D01*
Y286859D01*
X297608D01*
D02*
G37*
G36*
X409128Y280537D02*
X408854Y280126D01*
X408692Y279315D01*
X408854Y278504D01*
X409313Y277817D01*
X410000Y277358D01*
X410811Y277196D01*
X412876D01*
Y276434D01*
X410811D01*
X410000Y276272D01*
X409313Y275813D01*
X409300Y275793D01*
X404956D01*
X404390Y275681D01*
X403911Y275360D01*
X399190Y270640D01*
X398728Y270831D01*
Y276153D01*
X403612Y281037D01*
X408861D01*
X409128Y280537D01*
D02*
G37*
G36*
X440222Y257453D02*
Y228657D01*
X439735Y228376D01*
X439139Y227780D01*
X438718Y227050D01*
X438500Y226236D01*
Y225503D01*
X438243Y225283D01*
X438036Y225194D01*
X437978Y225227D01*
Y247353D01*
X438000Y247358D01*
X438687Y247817D01*
X439146Y248504D01*
X439308Y249315D01*
X439146Y250126D01*
X438687Y250813D01*
X438000Y251272D01*
X437189Y251434D01*
X435124D01*
Y252196D01*
X437189D01*
X438000Y252358D01*
X438687Y252817D01*
X439146Y253504D01*
X439308Y254315D01*
X439146Y255126D01*
X438687Y255813D01*
X438000Y256272D01*
X437189Y256434D01*
X430102D01*
X429292Y256272D01*
X428775Y255927D01*
X428378Y256238D01*
Y257366D01*
X428878Y257634D01*
X429292Y257358D01*
X430102Y257196D01*
X437189D01*
X438000Y257358D01*
X438687Y257817D01*
X438700Y257837D01*
X439838D01*
X440222Y257453D01*
D02*
G37*
G36*
X409313Y257817D02*
X410000Y257358D01*
X410811Y257196D01*
X417898D01*
X418708Y257358D01*
X419122Y257634D01*
X419622Y257366D01*
Y256264D01*
X419122Y255996D01*
X418708Y256272D01*
X417898Y256434D01*
X410811D01*
X410000Y256272D01*
X409313Y255813D01*
X408854Y255126D01*
X408692Y254315D01*
X408854Y253504D01*
X409313Y252817D01*
X410000Y252358D01*
X410811Y252196D01*
X412876D01*
Y251434D01*
X410811D01*
X410000Y251272D01*
X409313Y250813D01*
X408854Y250126D01*
X408692Y249315D01*
X408697Y249292D01*
X405955Y246549D01*
X405634Y246070D01*
X405522Y245504D01*
Y236342D01*
X405035Y236061D01*
X404728Y235754D01*
X404228Y235961D01*
Y254453D01*
X407612Y257837D01*
X409300D01*
X409313Y257817D01*
D02*
G37*
G36*
X371822Y313503D02*
Y254362D01*
X366505D01*
Y251793D01*
X358512D01*
X358445Y251860D01*
X357966Y252181D01*
X357400Y252293D01*
X348795D01*
Y252696D01*
X343261D01*
Y248934D01*
X348795D01*
Y249337D01*
X356788D01*
X356855Y249270D01*
X357334Y248949D01*
X357900Y248837D01*
X366505D01*
Y246269D01*
X371110D01*
X371301Y245807D01*
X365088Y239593D01*
X300497D01*
X299555Y240536D01*
X299700Y241079D01*
Y241921D01*
X299482Y242735D01*
X299061Y243465D01*
X298465Y244061D01*
X297735Y244482D01*
X296921Y244700D01*
X296129D01*
X296104Y244725D01*
Y245662D01*
X298082D01*
Y252968D01*
X296104D01*
Y259232D01*
X296366Y259623D01*
X296478Y260189D01*
Y266859D01*
X297955D01*
X298331Y266559D01*
X298331Y266559D01*
X298331Y266559D01*
X301193D01*
Y270315D01*
X301693D01*
Y270815D01*
X305055D01*
Y274071D01*
X303171D01*
Y280115D01*
X303059Y280681D01*
X302825Y281031D01*
Y286559D01*
X304709D01*
Y289815D01*
X301346D01*
Y290815D01*
X304709D01*
Y294071D01*
X302825D01*
Y294369D01*
X302712Y294934D01*
X302392Y295414D01*
X300245Y297560D01*
X300245Y297560D01*
X284078Y313727D01*
Y315465D01*
X289259D01*
X303270Y301455D01*
X303749Y301134D01*
X304315Y301022D01*
X313822D01*
X313922Y300900D01*
Y275565D01*
X314034Y274999D01*
X314355Y274520D01*
X315920Y272955D01*
X316399Y272634D01*
X316454Y272623D01*
Y271135D01*
X324547D01*
Y272522D01*
X327100D01*
X327666Y272634D01*
X328145Y272955D01*
X330787Y275596D01*
X334206D01*
Y275194D01*
X336763D01*
X339722Y272235D01*
Y256436D01*
X334206D01*
Y256293D01*
X329885D01*
X329319Y256181D01*
X328840Y255860D01*
X328088Y255108D01*
X325547D01*
Y256495D01*
X321778D01*
Y264415D01*
X321666Y264981D01*
X321345Y265460D01*
X311258Y275548D01*
Y280294D01*
X311744Y280575D01*
X312340Y281171D01*
X312761Y281900D01*
X312980Y282714D01*
Y283557D01*
X312761Y284371D01*
X312340Y285100D01*
X311744Y285696D01*
X311015Y286117D01*
X310201Y286335D01*
X309358D01*
X308544Y286117D01*
X307815Y285696D01*
X307219Y285100D01*
X306798Y284371D01*
X306580Y283557D01*
Y282714D01*
X306798Y281900D01*
X307219Y281171D01*
X307815Y280575D01*
X308301Y280294D01*
Y274935D01*
X308414Y274370D01*
X308734Y273890D01*
X318822Y263803D01*
Y256495D01*
X317454D01*
Y250793D01*
X305956D01*
Y252968D01*
X299044D01*
Y245662D01*
X305956D01*
Y247837D01*
X318388D01*
X319859Y246365D01*
X319652Y245865D01*
X317454D01*
Y240135D01*
X325547D01*
Y241522D01*
X327100D01*
X327666Y241634D01*
X328145Y241955D01*
X331787Y245596D01*
X334206D01*
Y245194D01*
X339739D01*
Y247751D01*
X342245Y250257D01*
X342566Y250737D01*
X342678Y251302D01*
Y272847D01*
X342566Y273413D01*
X342245Y273893D01*
X339739Y276399D01*
Y277940D01*
X340239Y278092D01*
X340455Y277770D01*
X348445Y269779D01*
X348300Y269236D01*
Y268394D01*
X348518Y267580D01*
X348939Y266850D01*
X349535Y266254D01*
X350265Y265833D01*
X351079Y265615D01*
X351921D01*
X352735Y265833D01*
X353465Y266254D01*
X354061Y266850D01*
X354482Y267580D01*
X354700Y268394D01*
Y269236D01*
X354482Y270050D01*
X354061Y270780D01*
X353465Y271376D01*
X352735Y271797D01*
X351921Y272015D01*
X351079D01*
X350536Y271870D01*
X343934Y278472D01*
X344125Y278934D01*
X348795D01*
Y279337D01*
X364820D01*
Y277769D01*
X370550D01*
Y285861D01*
X364820D01*
Y282293D01*
X348795D01*
Y282696D01*
X343261D01*
X342978Y283079D01*
Y285683D01*
X344476Y320419D01*
X344473Y320435D01*
X344477Y320451D01*
X344478Y320515D01*
X344475Y320531D01*
X344478Y320547D01*
Y340193D01*
X344940Y340384D01*
X371822Y313503D01*
D02*
G37*
G36*
X383322Y271652D02*
Y268727D01*
X378955Y264360D01*
X378634Y263881D01*
X378522Y263315D01*
Y254362D01*
X377478D01*
Y266462D01*
X382860Y271843D01*
X383322Y271652D01*
D02*
G37*
G36*
X510619Y257764D02*
X510954Y257698D01*
Y256265D01*
X519022D01*
Y254612D01*
X515775Y251365D01*
X510954D01*
Y250293D01*
X505612D01*
X504545Y251360D01*
X504066Y251681D01*
X503500Y251793D01*
X500236D01*
X499794Y251934D01*
Y255696D01*
X500082Y256077D01*
X508500D01*
X509066Y256189D01*
X509545Y256510D01*
X509866Y256989D01*
X509978Y257555D01*
Y257591D01*
X510478Y257858D01*
X510619Y257764D01*
D02*
G37*
G36*
X419622Y247366D02*
Y239827D01*
X416741Y236947D01*
X416463Y237033D01*
X416263Y237176D01*
Y237936D01*
X416045Y238750D01*
X415624Y239480D01*
X415028Y240076D01*
X414298Y240497D01*
X413484Y240715D01*
X412642D01*
X411828Y240497D01*
X411098Y240076D01*
X410502Y239480D01*
X410081Y238750D01*
X409863Y237936D01*
Y237094D01*
X410081Y236280D01*
X410502Y235550D01*
X411098Y234954D01*
X411585Y234674D01*
Y230468D01*
X409607D01*
Y227084D01*
X409107Y226877D01*
X406063Y229921D01*
X406322Y230369D01*
X406579Y230300D01*
X407421D01*
X408235Y230518D01*
X408965Y230939D01*
X409561Y231535D01*
X409982Y232265D01*
X410200Y233079D01*
Y233921D01*
X409982Y234735D01*
X409561Y235465D01*
X408965Y236061D01*
X408478Y236342D01*
Y244892D01*
X410788Y247201D01*
X410811Y247196D01*
X417898D01*
X418708Y247358D01*
X419122Y247634D01*
X419622Y247366D01*
D02*
G37*
G36*
X334206Y252674D02*
X339722D01*
Y251915D01*
X336763Y248956D01*
X334206D01*
Y248553D01*
X331175D01*
X330609Y248441D01*
X330129Y248120D01*
X326488Y244478D01*
X325547D01*
Y245865D01*
X322978D01*
Y246815D01*
X322866Y247381D01*
X322545Y247860D01*
X320141Y250265D01*
X320243Y250640D01*
X320331Y250765D01*
X325547D01*
Y252152D01*
X328700D01*
X329266Y252264D01*
X329745Y252585D01*
X330497Y253337D01*
X334206D01*
Y252674D01*
D02*
G37*
G36*
X480522Y243903D02*
Y237315D01*
X480634Y236749D01*
X480955Y236270D01*
X485955Y231270D01*
X486434Y230949D01*
X487000Y230837D01*
X487847D01*
Y228859D01*
X495153D01*
X495389Y228656D01*
Y228299D01*
X494973Y227897D01*
X487847D01*
Y220985D01*
X490022D01*
Y205059D01*
X481734Y196772D01*
X481318Y196562D01*
Y196562D01*
X481318Y196562D01*
X469682D01*
Y195175D01*
X466300D01*
X465734Y195063D01*
X465255Y194742D01*
X460546Y190034D01*
X460046Y190241D01*
Y192321D01*
X469220Y201495D01*
X469682Y201303D01*
Y201068D01*
X481318D01*
Y206799D01*
X474725D01*
X473978Y207546D01*
Y221135D01*
X476546D01*
Y226865D01*
X468454D01*
Y221135D01*
X471022D01*
Y206933D01*
X470911Y206799D01*
X469682D01*
Y205412D01*
X469568D01*
X469002Y205299D01*
X468522Y204979D01*
X463075Y199532D01*
X462575Y199739D01*
Y211815D01*
X462463Y212381D01*
X462142Y212860D01*
X457142Y217860D01*
X456663Y218181D01*
X456097Y218293D01*
X435462D01*
X435078Y218677D01*
Y222965D01*
X435090Y222975D01*
X435578Y223146D01*
X438255Y220470D01*
X438734Y220149D01*
X439300Y220037D01*
X444800D01*
X445366Y220149D01*
X445845Y220470D01*
X448645Y223270D01*
X448953Y223731D01*
X448991Y223739D01*
X449453Y223631D01*
Y219635D01*
X457547D01*
Y221130D01*
X457566Y221134D01*
X458045Y221455D01*
X461045Y224455D01*
X461366Y224934D01*
X461478Y225500D01*
Y228388D01*
X466242Y233152D01*
X468454D01*
Y231765D01*
X476546D01*
Y237495D01*
X468454D01*
Y236108D01*
X465630D01*
X465175Y236018D01*
X464823Y236233D01*
X464700Y236354D01*
Y236921D01*
X464482Y237735D01*
X464061Y238465D01*
X463465Y239061D01*
X462735Y239482D01*
X461921Y239700D01*
X461079D01*
X460265Y239482D01*
X459535Y239061D01*
X458939Y238465D01*
X458518Y237735D01*
X458300Y236921D01*
Y236079D01*
X458518Y235265D01*
X458939Y234535D01*
X459352Y234123D01*
Y233978D01*
X458955Y233581D01*
X458634Y233101D01*
X458522Y232536D01*
Y229612D01*
X454275Y225365D01*
X449578D01*
X449453Y225365D01*
X449078Y225667D01*
Y229963D01*
X449454Y230265D01*
X457547D01*
Y235995D01*
X454978D01*
Y238403D01*
X459862Y243287D01*
X461294D01*
X461439Y243035D01*
X462035Y242439D01*
X462765Y242018D01*
X463579Y241800D01*
X464421D01*
X465235Y242018D01*
X465965Y242439D01*
X466561Y243035D01*
X466982Y243765D01*
X467200Y244579D01*
Y245421D01*
X466982Y246235D01*
X466561Y246965D01*
X465989Y247537D01*
X465996Y247646D01*
X466141Y248037D01*
X476388D01*
X480522Y243903D01*
D02*
G37*
G36*
X383786Y264303D02*
X383722Y263978D01*
Y250715D01*
Y226741D01*
X383834Y226175D01*
X384155Y225696D01*
X385955Y223896D01*
X386347Y223633D01*
Y221485D01*
X392526D01*
X392717Y221023D01*
X392388Y220693D01*
X382612D01*
X377478Y225827D01*
Y246269D01*
X382865D01*
Y254362D01*
X381478D01*
Y262703D01*
X383326Y264550D01*
X383786Y264303D01*
D02*
G37*
G36*
X425855Y254520D02*
X427105Y253270D01*
X427584Y252949D01*
X428150Y252837D01*
X428591D01*
X428604Y252817D01*
X429292Y252358D01*
X430102Y252196D01*
X432167D01*
Y251434D01*
X430102D01*
X429292Y251272D01*
X428604Y250813D01*
X428145Y250126D01*
X427984Y249315D01*
X428145Y248504D01*
X428604Y247817D01*
X429292Y247358D01*
X430102Y247196D01*
X432122D01*
Y218065D01*
X432234Y217499D01*
X432555Y217020D01*
X433805Y215770D01*
X434284Y215449D01*
X434850Y215337D01*
X455484D01*
X459618Y211203D01*
Y205995D01*
X451954D01*
Y204608D01*
X440015D01*
Y205684D01*
X431827D01*
X428478Y209033D01*
Y239515D01*
X428366Y240081D01*
X428045Y240560D01*
X425278Y243327D01*
Y254482D01*
X425778Y254634D01*
X425855Y254520D01*
D02*
G37*
G36*
X374522Y244139D02*
Y225215D01*
X374634Y224649D01*
X374955Y224170D01*
X380955Y218170D01*
X381434Y217849D01*
X382000Y217737D01*
X392120D01*
X392186Y217237D01*
X391665Y217097D01*
X390935Y216676D01*
X390339Y216080D01*
X389918Y215350D01*
X389700Y214536D01*
Y213694D01*
X389918Y212880D01*
X390339Y212150D01*
X390935Y211554D01*
X391422Y211274D01*
Y209421D01*
X391534Y208855D01*
X391855Y208376D01*
X395207Y205024D01*
X395000Y204524D01*
X393000D01*
Y201162D01*
X392000D01*
Y204524D01*
X388744D01*
Y203384D01*
X373953D01*
Y205662D01*
X370500D01*
Y201906D01*
Y198150D01*
X373953D01*
Y200427D01*
X388744D01*
Y197799D01*
X388744D01*
X389044Y197531D01*
Y195510D01*
X373653D01*
Y197487D01*
X366347D01*
Y190576D01*
X373653D01*
Y192553D01*
X389044D01*
Y191406D01*
X394747D01*
X394939Y190944D01*
X392982Y188988D01*
X356692D01*
X356492Y189362D01*
X356475Y189488D01*
X356578Y190010D01*
Y199315D01*
X356567Y199372D01*
X356574Y199429D01*
X356511Y199653D01*
X356466Y199881D01*
X356434Y199929D01*
X356418Y199985D01*
X356340Y200084D01*
X356411Y200343D01*
X356598Y200584D01*
X366047D01*
Y198150D01*
X369500D01*
Y201906D01*
Y205662D01*
X366047D01*
Y203540D01*
X354256D01*
Y204177D01*
X351000D01*
Y200815D01*
X350000D01*
Y204177D01*
X347378D01*
Y218364D01*
X347266Y218930D01*
X346945Y219410D01*
X330181Y236175D01*
X330372Y236637D01*
X365700D01*
X366266Y236749D01*
X366745Y237070D01*
X374022Y244346D01*
X374522Y244139D01*
D02*
G37*
G36*
X425522Y238903D02*
Y208421D01*
X425634Y207855D01*
X425955Y207375D01*
X427985Y205345D01*
Y199757D01*
X440015D01*
Y201652D01*
X451954D01*
Y200265D01*
X451957D01*
X452164Y199765D01*
X444788Y192388D01*
X440015D01*
Y193873D01*
X427985D01*
Y192388D01*
X424018D01*
X421982Y194423D01*
X421503Y194744D01*
X420937Y194856D01*
X416653D01*
Y196834D01*
X409347D01*
Y189922D01*
X416653D01*
Y191900D01*
X420325D01*
X422360Y189864D01*
X422840Y189543D01*
X423406Y189431D01*
X427985D01*
Y188293D01*
X407619D01*
X403485Y192427D01*
Y210274D01*
X403372Y210840D01*
X403052Y211319D01*
X401228Y213142D01*
Y229910D01*
X401627Y230067D01*
X401728Y230074D01*
X406885Y224918D01*
Y201252D01*
X406997Y200686D01*
X407318Y200207D01*
X407797Y199886D01*
X408363Y199774D01*
X409347D01*
Y197796D01*
X416653D01*
Y204708D01*
X409841D01*
Y223162D01*
X416519D01*
Y230468D01*
X415151D01*
X414944Y230968D01*
X422145Y238170D01*
X422466Y238649D01*
X422578Y239215D01*
Y241139D01*
X423078Y241346D01*
X425522Y238903D01*
D02*
G37*
G36*
X320953Y201765D02*
X326122D01*
Y198794D01*
X326234Y198228D01*
X326555Y197749D01*
X326938Y197365D01*
X326731Y196865D01*
X320953D01*
Y195478D01*
X317112D01*
X314923Y197667D01*
X314444Y197988D01*
X313878Y198100D01*
X309456D01*
Y199684D01*
X302878D01*
Y200253D01*
X309456D01*
Y202337D01*
X316000D01*
X316566Y202449D01*
X317045Y202770D01*
X317427Y203152D01*
X320953D01*
Y201765D01*
D02*
G37*
G36*
X293148Y244112D02*
X293260Y243547D01*
X293581Y243067D01*
X293662Y242985D01*
X293518Y242735D01*
X293300Y241921D01*
Y241079D01*
X293518Y240265D01*
X293939Y239535D01*
X294535Y238939D01*
X295265Y238518D01*
X296079Y238300D01*
X296921D01*
X297464Y238445D01*
X298840Y237070D01*
X299319Y236749D01*
X299413Y236731D01*
X299885Y236637D01*
X325537D01*
X344422Y217752D01*
Y196580D01*
X344534Y196014D01*
X344855Y195534D01*
X345733Y194656D01*
X346213Y194335D01*
X346779Y194222D01*
X347044D01*
Y191488D01*
X345418D01*
X334078Y202827D01*
Y211115D01*
X333966Y211681D01*
X333645Y212160D01*
X333166Y212481D01*
X332600Y212593D01*
X317512D01*
X291578Y238527D01*
Y245662D01*
X293148D01*
Y244112D01*
D02*
G37*
G36*
X495153Y220985D02*
X495522Y220668D01*
Y188827D01*
X491088Y184393D01*
X344684D01*
X343503Y185574D01*
X343749Y186035D01*
X343770Y186031D01*
X393595D01*
X394160Y186144D01*
X394640Y186464D01*
X400073Y191897D01*
X400556Y191673D01*
X400640Y191249D01*
X400961Y190770D01*
X405961Y185770D01*
X406440Y185449D01*
X407006Y185337D01*
X459418D01*
X459984Y185449D01*
X460464Y185770D01*
X466912Y192218D01*
X469682D01*
Y190831D01*
X481318D01*
Y192332D01*
X481795Y192651D01*
X492545Y203401D01*
X492866Y203881D01*
X492978Y204447D01*
Y220985D01*
X495153D01*
D02*
G37*
G36*
X451954Y194665D02*
Y189635D01*
X459440D01*
X459647Y189135D01*
X458806Y188293D01*
X440015D01*
Y189431D01*
X445400D01*
X445966Y189543D01*
X446445Y189864D01*
X451453Y194872D01*
X451954Y194665D01*
D02*
G37*
%LPC*%
G36*
X307500Y400768D02*
X307480D01*
X306474Y400498D01*
X305573Y399978D01*
X304837Y399242D01*
X304317Y398341D01*
X304047Y397335D01*
Y397315D01*
X307500D01*
Y400768D01*
D02*
G37*
G36*
X311953Y396315D02*
X308500D01*
Y392862D01*
X308520D01*
X309526Y393132D01*
X310427Y393652D01*
X311163Y394388D01*
X311683Y395289D01*
X311953Y396295D01*
Y396315D01*
D02*
G37*
G36*
X298877Y363180D02*
X298123D01*
X297394Y362985D01*
X296741Y362608D01*
X296207Y362074D01*
X295830Y361421D01*
X295635Y360692D01*
Y359938D01*
X295830Y359209D01*
X296207Y358556D01*
X296741Y358022D01*
X297394Y357645D01*
X298123Y357450D01*
X298877D01*
X299606Y357645D01*
X300259Y358022D01*
X300793Y358556D01*
X301170Y359209D01*
X301365Y359938D01*
Y360692D01*
X301170Y361421D01*
X300793Y362074D01*
X300259Y362608D01*
X299606Y362985D01*
X298877Y363180D01*
D02*
G37*
G36*
Y353180D02*
X298123D01*
X297394Y352985D01*
X296741Y352608D01*
X296207Y352074D01*
X295830Y351421D01*
X295635Y350692D01*
Y349938D01*
X295830Y349209D01*
X296207Y348556D01*
X296741Y348022D01*
X297394Y347645D01*
X298123Y347450D01*
X298877D01*
X299606Y347645D01*
X300259Y348022D01*
X300793Y348556D01*
X301170Y349209D01*
X301365Y349938D01*
Y350692D01*
X301170Y351421D01*
X300793Y352074D01*
X300259Y352608D01*
X299606Y352985D01*
X298877Y353180D01*
D02*
G37*
G36*
X297877Y322180D02*
X297123D01*
X296394Y321985D01*
X295741Y321608D01*
X295207Y321074D01*
X294830Y320421D01*
X294635Y319692D01*
Y318938D01*
X294830Y318209D01*
X295207Y317556D01*
X295741Y317022D01*
X296394Y316645D01*
X297123Y316450D01*
X297877D01*
X298606Y316645D01*
X299259Y317022D01*
X299793Y317556D01*
X300170Y318209D01*
X300365Y318938D01*
Y319692D01*
X300170Y320421D01*
X299793Y321074D01*
X299259Y321608D01*
X298606Y321985D01*
X297877Y322180D01*
D02*
G37*
G36*
X330438Y396700D02*
X329562D01*
X328754Y396365D01*
X328135Y395746D01*
X327800Y394938D01*
Y394062D01*
X328135Y393254D01*
X328754Y392635D01*
X329522Y392317D01*
Y362133D01*
X329135Y361746D01*
X328800Y360938D01*
Y360062D01*
X329135Y359254D01*
X329754Y358635D01*
X330562Y358300D01*
X331438D01*
X332246Y358635D01*
X332865Y359254D01*
X333200Y360062D01*
Y360938D01*
X332865Y361746D01*
X332478Y362133D01*
Y393094D01*
X332366Y393660D01*
X332161Y393967D01*
X332200Y394062D01*
Y394938D01*
X331865Y395746D01*
X331246Y396365D01*
X330438Y396700D01*
D02*
G37*
G36*
X433500Y306815D02*
X430246D01*
X430500Y305865D01*
X430995Y305009D01*
X431694Y304310D01*
X432550Y303815D01*
X433500Y303561D01*
Y306815D01*
D02*
G37*
G36*
X437754D02*
X434500D01*
Y303561D01*
X435450Y303815D01*
X435655Y303934D01*
X436021Y303568D01*
X435780Y303149D01*
X435544Y302270D01*
Y301360D01*
X435780Y300481D01*
X436235Y299693D01*
X436878Y299050D01*
X437666Y298595D01*
X438545Y298359D01*
X439455D01*
X440334Y298595D01*
X441122Y299050D01*
X441765Y299693D01*
X442220Y300481D01*
X442456Y301360D01*
Y302270D01*
X442220Y303149D01*
X441765Y303937D01*
X441122Y304580D01*
X440334Y305035D01*
X439455Y305271D01*
X438545D01*
X437666Y305035D01*
X437564Y304977D01*
X437198Y305343D01*
X437500Y305865D01*
X437754Y306815D01*
D02*
G37*
G36*
X443475Y267805D02*
Y264815D01*
X446464D01*
X446236Y265666D01*
X445775Y266464D01*
X445124Y267116D01*
X444326Y267577D01*
X443475Y267805D01*
D02*
G37*
G36*
X446464Y263815D02*
X443475D01*
Y260825D01*
X444326Y261053D01*
X445124Y261514D01*
X445775Y262166D01*
X446236Y262964D01*
X446464Y263815D01*
D02*
G37*
G36*
X370050Y313861D02*
X364320D01*
Y310793D01*
X350294D01*
Y311196D01*
X344761D01*
Y307434D01*
X350294D01*
Y307837D01*
X364320D01*
Y305769D01*
X370050D01*
Y313861D01*
D02*
G37*
G36*
X305055Y269815D02*
X302193D01*
Y266559D01*
X305055D01*
Y269815D01*
D02*
G37*
G36*
X424393Y230468D02*
X417481D01*
Y223162D01*
X419459D01*
Y222549D01*
X418964Y222055D01*
X418421Y222200D01*
X417579D01*
X416765Y221982D01*
X416035Y221561D01*
X415439Y220965D01*
X415018Y220235D01*
X414800Y219421D01*
Y218579D01*
X415018Y217765D01*
X415439Y217035D01*
X416035Y216439D01*
X416765Y216018D01*
X417579Y215800D01*
X418421D01*
X419235Y216018D01*
X419965Y216439D01*
X420561Y217035D01*
X420982Y217765D01*
X421200Y218579D01*
Y219421D01*
X421055Y219964D01*
X421982Y220892D01*
X422303Y221371D01*
X422415Y221937D01*
Y223162D01*
X424393D01*
Y230468D01*
D02*
G37*
%LPD*%
D14*
X393000Y382997D02*
X396999D01*
X394999D01*
Y376999D01*
X398998Y382997D02*
Y376999D01*
Y379998D01*
X399998Y380998D01*
X401997D01*
X402997Y379998D01*
Y376999D01*
X405996D02*
X407995D01*
X408995Y377999D01*
Y379998D01*
X407995Y380998D01*
X405996D01*
X404996Y379998D01*
Y377999D01*
X405996Y376999D01*
X410994D02*
Y380998D01*
X411994D01*
X412993Y379998D01*
Y376999D01*
Y379998D01*
X413993Y380998D01*
X414993Y379998D01*
Y376999D01*
X417992Y380998D02*
X419991D01*
X420991Y379998D01*
Y376999D01*
X417992D01*
X416992Y377999D01*
X417992Y378999D01*
X420991D01*
X422990Y376999D02*
X425989D01*
X426989Y377999D01*
X425989Y378999D01*
X423990D01*
X422990Y379998D01*
X423990Y380998D01*
X426989D01*
X434986Y376999D02*
Y382997D01*
X438985Y376999D01*
Y382997D01*
X440984Y376999D02*
X442984D01*
X441984D01*
Y380998D01*
X440984D01*
X445983Y375000D02*
X446982D01*
X447982Y376000D01*
Y380998D01*
X451981Y376999D02*
X454980D01*
X455980Y377999D01*
X454980Y378999D01*
X452981D01*
X451981Y379998D01*
X452981Y380998D01*
X455980D01*
D16*
X420937Y226815D02*
D03*
X413063D02*
D03*
X302500Y249315D02*
D03*
X294626D02*
D03*
X474063Y392815D02*
D03*
X481937D02*
D03*
X457000Y394315D02*
D03*
X449126D02*
D03*
D17*
X346028Y250815D02*
D03*
X336972Y247075D02*
D03*
Y254555D02*
D03*
X346028Y280815D02*
D03*
X336972Y277075D02*
D03*
Y284555D02*
D03*
X347528Y309315D02*
D03*
X338472Y305575D02*
D03*
Y313055D02*
D03*
X497028Y253815D02*
D03*
X487972Y250075D02*
D03*
Y257555D02*
D03*
X496028Y284315D02*
D03*
X486972Y280575D02*
D03*
Y288055D02*
D03*
X495555Y314575D02*
D03*
X486500Y310835D02*
D03*
Y318315D02*
D03*
D18*
X367185Y309815D02*
D03*
X377815D02*
D03*
X369370Y250315D02*
D03*
X380000D02*
D03*
X367685Y281815D02*
D03*
X378315D02*
D03*
X461185Y315815D02*
D03*
X471815D02*
D03*
X461185Y254815D02*
D03*
X471815D02*
D03*
X471315Y281315D02*
D03*
X460685D02*
D03*
D19*
X321500Y243000D02*
D03*
Y253630D02*
D03*
X320500Y274000D02*
D03*
Y284630D02*
D03*
X321000Y302500D02*
D03*
Y313130D02*
D03*
X514000Y309500D02*
D03*
Y320130D02*
D03*
X515000Y248500D02*
D03*
Y259130D02*
D03*
Y279500D02*
D03*
Y290130D02*
D03*
X325000Y194000D02*
D03*
Y204630D02*
D03*
X456000Y203130D02*
D03*
Y192500D02*
D03*
X472500Y224000D02*
D03*
Y234630D02*
D03*
X453500Y222500D02*
D03*
Y233130D02*
D03*
D20*
X370000Y201906D02*
D03*
Y194032D02*
D03*
Y405378D02*
D03*
Y413252D02*
D03*
X491500Y224441D02*
D03*
Y232315D02*
D03*
X390000Y232815D02*
D03*
Y224941D02*
D03*
X413000Y201252D02*
D03*
Y193378D02*
D03*
D21*
X344441Y414315D02*
D03*
X347000D02*
D03*
X349559D02*
D03*
X352118D02*
D03*
Y403882D02*
D03*
X349559D02*
D03*
X347000D02*
D03*
X344441D02*
D03*
D22*
X420950Y426815D02*
D03*
Y421815D02*
D03*
Y416815D02*
D03*
Y411815D02*
D03*
Y406815D02*
D03*
Y401815D02*
D03*
Y396815D02*
D03*
X400050D02*
D03*
Y401815D02*
D03*
Y406815D02*
D03*
Y411815D02*
D03*
Y416815D02*
D03*
Y421815D02*
D03*
Y426815D02*
D03*
D23*
X360500Y375150D02*
D03*
X355500D02*
D03*
X350500D02*
D03*
X345500D02*
D03*
X360500Y354480D02*
D03*
X355500D02*
D03*
X350500D02*
D03*
X345500D02*
D03*
D24*
X433646Y249315D02*
D03*
Y254315D02*
D03*
Y259315D02*
D03*
Y264315D02*
D03*
Y269315D02*
D03*
Y274315D02*
D03*
Y279315D02*
D03*
X414354Y249315D02*
D03*
Y254315D02*
D03*
Y259315D02*
D03*
Y264315D02*
D03*
Y269315D02*
D03*
Y274315D02*
D03*
Y279315D02*
D03*
D25*
X476500Y426161D02*
D03*
Y419468D02*
D03*
X327000Y405122D02*
D03*
Y411815D02*
D03*
X460000Y419122D02*
D03*
Y425815D02*
D03*
X350500Y194122D02*
D03*
Y200815D02*
D03*
X392500Y194469D02*
D03*
Y201162D02*
D03*
X306000Y203315D02*
D03*
Y196622D02*
D03*
D26*
X294654Y290315D02*
D03*
X301346D02*
D03*
X295000Y270315D02*
D03*
X301693D02*
D03*
D27*
X434000Y202720D02*
D03*
Y190910D02*
D03*
D28*
X475500Y203933D02*
D03*
Y193697D02*
D03*
D29*
X346830Y400832D02*
Y401382D01*
X344452Y398454D02*
X346830Y400832D01*
Y401382D02*
X347000Y401552D01*
X349029Y398029D02*
Y400470D01*
X363688Y412504D02*
X369252D01*
X370000Y413252D01*
X360000Y411596D02*
Y413404D01*
Y411596D02*
X364212Y407384D01*
X363115Y404223D02*
X363454D01*
X360000Y413404D02*
X361250Y414654D01*
X358046Y409293D02*
X363115Y404223D01*
X357707Y409293D02*
X358046D01*
X384977Y410477D02*
X385000Y410500D01*
X384977Y404523D02*
Y410477D01*
X356954Y404535D02*
X356979D01*
X364212Y407384D02*
X367797D01*
X475500Y427261D02*
Y434000D01*
Y427261D02*
X476600Y426161D01*
X433200Y406815D02*
X464635Y438250D01*
X477260D02*
X486500Y429010D01*
X464635Y438250D02*
X477260D01*
X486500Y318315D02*
Y429010D01*
X360833Y375482D02*
Y376860D01*
X360500Y375150D02*
X360833Y375482D01*
X366000Y382028D02*
Y388500D01*
X360833Y376860D02*
X366000Y382028D01*
X345675Y380825D02*
X345850Y381000D01*
X345675Y375325D02*
Y380825D01*
X345500Y375150D02*
X345675Y375325D01*
X353289Y387000D02*
X355167Y385121D01*
X355536Y389500D02*
X358035Y392000D01*
X337600Y387621D02*
X339479Y389500D01*
X355536D01*
X340100Y343779D02*
Y384657D01*
X338938Y392000D02*
X354500D01*
X357750Y395250D01*
X349621Y384500D02*
X350500Y383621D01*
X330662Y400276D02*
X338938Y392000D01*
X340100Y384657D02*
X342443Y387000D01*
X340500Y394500D02*
X345500D01*
X342600Y383621D02*
X343479Y384500D01*
X350500Y375150D02*
Y383621D01*
X343479Y384500D02*
X349621D01*
X342600Y344815D02*
Y383621D01*
X345500Y394500D02*
X349029Y398029D01*
X332250Y402750D02*
X340500Y394500D01*
X342443Y387000D02*
X353289D01*
X355167Y375482D02*
Y385121D01*
X332250Y402750D02*
Y412750D01*
X337600Y313055D02*
Y387621D01*
X392500Y397000D02*
X399865D01*
X400050Y396815D01*
X384977Y404523D02*
X392500Y397000D01*
X392250Y416250D02*
X392500Y416000D01*
X392000Y416500D02*
X392250Y416250D01*
X392180Y406635D02*
X392271Y406725D01*
X390641Y412874D02*
X391700Y411815D01*
X399960Y406725D02*
X400050Y406815D01*
X386240Y416250D02*
X389616Y412874D01*
X392271Y406725D02*
X399960D01*
X389616Y412874D02*
X390641D01*
X392000Y416500D02*
Y423000D01*
X370197Y413252D02*
X374900Y417955D01*
Y418750D01*
X361250Y417250D02*
X373000Y429000D01*
X402965Y431500D02*
X405800Y428665D01*
X338285Y431500D02*
X402965D01*
X380811Y419315D02*
X387996Y426500D01*
X308000Y416815D02*
X325185Y434000D01*
X387996Y426500D02*
X394040D01*
X318800Y412015D02*
X338285Y431500D01*
X406015Y434000D02*
X409500Y430515D01*
X373000Y429000D02*
X396215D01*
X398050Y427165D01*
X394040Y426500D02*
X396575Y423965D01*
X325185Y434000D02*
X406015D01*
X398050Y427165D02*
X399700D01*
X400050Y426815D01*
X396575Y423965D02*
X397171D01*
X398050Y423086D01*
Y422165D02*
Y423086D01*
X398400Y421815D02*
X400050D01*
X398050Y422165D02*
X398400Y421815D01*
X352118Y414315D02*
X352254Y414451D01*
Y415632D02*
X357513Y420891D01*
X360295D02*
X360582Y421178D01*
X352254Y414451D02*
Y415632D01*
X357513Y420891D02*
X360295D01*
X370000Y413252D02*
X370197D01*
X361250Y414654D02*
Y417250D01*
X354915Y411098D02*
Y412916D01*
X352118Y408301D02*
X354915Y411098D01*
Y412916D02*
X358000Y416000D01*
X352118Y403882D02*
Y408301D01*
X359923Y398577D02*
X360000Y398500D01*
X330000Y394094D02*
Y394500D01*
Y394094D02*
X331000Y393094D01*
Y360500D02*
Y393094D01*
X354923Y398000D02*
X355500Y398577D01*
X359923D01*
X363596Y399500D02*
X367547D01*
X361346Y401750D02*
X363596Y399500D01*
X360250Y388500D02*
X360500Y388750D01*
X366919Y395250D02*
X367797Y396129D01*
X356979Y404535D02*
X359764Y401750D01*
X360250Y381750D02*
Y388500D01*
X359764Y401750D02*
X361346D01*
X357750Y395250D02*
X366919D01*
X358035Y392000D02*
X373985D01*
X340882Y403882D02*
X344441D01*
X339500Y402500D02*
X340882Y403882D01*
X367797Y399750D02*
Y403372D01*
Y396129D02*
Y399750D01*
X367547Y399500D02*
X367797Y399750D01*
Y403372D02*
X369803Y405378D01*
X360000Y381500D02*
X360250Y381750D01*
X373985Y392000D02*
X380811Y398826D01*
Y419315D01*
X367797Y407384D02*
X369803Y405378D01*
X344452Y398048D02*
Y398454D01*
X460000Y394315D02*
Y411715D01*
X485600Y310835D02*
X499500D01*
X316965Y274000D02*
X327100D01*
X347000Y401552D02*
Y403882D01*
X324822Y400276D02*
X330662D01*
X349559Y399941D02*
X351500Y398000D01*
X354923D01*
X332250Y412750D02*
X342750Y423250D01*
X347500Y419594D02*
Y420000D01*
X350750Y418374D02*
Y421346D01*
X347000Y419094D02*
X347500Y419594D01*
X349559Y414315D02*
Y417184D01*
X347000Y414315D02*
Y419094D01*
X348846Y423250D02*
X350750Y421346D01*
X342750Y423250D02*
X348846D01*
X349559Y417184D02*
X350750Y418374D01*
X338000Y412815D02*
X339500Y414315D01*
X343685D01*
X331315Y411815D02*
X332250Y412750D01*
X349559Y401000D02*
Y403882D01*
Y399941D02*
Y401000D01*
X327000Y411815D02*
X331315D01*
X342999Y320483D02*
X343000Y320547D01*
Y340880D01*
X340100Y343779D02*
X343000Y340880D01*
X341500Y285715D02*
X342999Y320483D01*
X355167Y375482D02*
X355500Y375150D01*
X324798Y400252D02*
Y402920D01*
X324994Y403510D02*
X326606Y405122D01*
X324994Y403116D02*
Y403510D01*
X324798Y402920D02*
X324994Y403116D01*
X345900Y196580D02*
X346779Y195701D01*
X345900Y196580D02*
Y218364D01*
X348921Y195701D02*
X350500Y194122D01*
X346779Y195701D02*
X348921D01*
X405800Y418415D02*
Y428665D01*
X409500Y311815D02*
X423185Y325500D01*
X457500D01*
X408969Y303190D02*
X428779Y323000D01*
X457500Y325500D02*
X461185Y321815D01*
X437715Y323000D02*
X454269Y306446D01*
X428779Y323000D02*
X437715D01*
X313403Y369500D02*
X314830Y370927D01*
X315903Y344379D02*
X319750Y348226D01*
X314830Y370927D02*
Y373830D01*
X314300Y386815D02*
X319750Y381365D01*
X314830Y373830D02*
X315500Y374500D01*
X319750Y348226D02*
Y381365D01*
X459250Y244765D02*
X463765D01*
X453500Y239015D02*
X459250Y244765D01*
X463765D02*
X464000Y245000D01*
X451400Y242015D02*
Y246600D01*
X448000Y250000D02*
X451400Y246600D01*
X447600Y238215D02*
X451400Y242015D01*
X453500Y233130D02*
Y239015D01*
X460830Y235830D02*
X461500Y236500D01*
X460830Y233366D02*
Y235830D01*
X460000Y232536D02*
X460830Y233366D01*
X460000Y229000D02*
Y232536D01*
X294626Y244112D02*
X296500Y242238D01*
X294626Y244112D02*
Y259815D01*
X296500Y241500D02*
X299885Y238115D01*
X326149D01*
X296500Y241500D02*
Y242238D01*
X316929Y309214D02*
X330760D01*
X315903Y310240D02*
Y344379D01*
Y310240D02*
X316929Y309214D01*
X313403Y306714D02*
Y369500D01*
X313603Y306515D02*
X326100D01*
X313403Y306714D02*
X313603Y306515D01*
X414000Y400000D02*
X414670Y399330D01*
X406739Y404760D02*
X407260D01*
X416785Y399330D02*
X418950Y397165D01*
X407260Y404760D02*
X410936Y408436D01*
X414670Y399330D02*
X416785D01*
X420600Y397165D02*
X420950Y396815D01*
X418950Y397165D02*
X420600D01*
X402750Y231143D02*
X408363Y225530D01*
X407000Y233500D02*
Y245504D01*
X413944Y248905D02*
X414354Y249315D01*
X402750Y255065D02*
X402912Y255227D01*
X407000Y245504D02*
X410401Y248905D01*
X402750Y231143D02*
Y255065D01*
X410401Y248905D02*
X413944D01*
X418000Y219000D02*
X420937Y221937D01*
Y226815D01*
X403800Y416815D02*
X410936Y409679D01*
Y408436D02*
Y409679D01*
X350500Y346990D02*
Y354480D01*
X354240Y343250D02*
X357760D01*
X350500Y346990D02*
X354240Y343250D01*
X358205Y343694D02*
X362343D01*
X355750Y347750D02*
X356000Y347500D01*
X359652Y338533D02*
X361722Y336462D01*
X355750Y347750D02*
Y354230D01*
X357760Y343250D02*
X358205Y343694D01*
X359652Y338533D02*
Y339444D01*
X355500Y354480D02*
X355750Y354230D01*
X362343Y343694D02*
X364222Y341815D01*
Y335893D02*
Y341815D01*
X361722Y334857D02*
X384800Y311779D01*
X361722Y334857D02*
Y336462D01*
X360500Y351347D02*
X405032Y306815D01*
X360500Y351347D02*
Y361815D01*
X313878Y196622D02*
X316500Y194000D01*
X306000Y196622D02*
X313878D01*
X316500Y194000D02*
X325000D01*
X420950Y406815D02*
X433200D01*
X420950Y401815D02*
X431900D01*
X418800Y426815D02*
Y430715D01*
X323000Y411815D02*
X324500D01*
X394750Y279165D02*
X428400Y312815D01*
X397250Y276765D02*
X403000Y282515D01*
X397250Y211494D02*
X399506Y209238D01*
X393595Y187510D02*
X399506Y193421D01*
X402912Y255227D02*
Y259470D01*
X399750Y269109D02*
X404956Y274315D01*
X397250Y211494D02*
Y276765D01*
X394750Y220965D02*
Y279165D01*
X404000Y260558D02*
Y265500D01*
X393000Y219215D02*
X394750Y220965D01*
X399750Y212530D02*
Y269109D01*
X402912Y259470D02*
X404000Y260558D01*
X399506Y193421D02*
Y209238D01*
X399750Y212530D02*
X402006Y210274D01*
X308000Y386815D02*
X312522D01*
X324798Y400252D01*
X312522Y386815D02*
X314300D01*
X323000Y348815D02*
Y391815D01*
X325000Y393815D02*
Y394815D01*
X323000Y391815D02*
X325000Y393815D01*
X403100Y396815D02*
X405406Y394509D01*
X293200Y325015D02*
Y335815D01*
X282600Y324415D02*
X287500Y329315D01*
Y319315D02*
X293200Y325015D01*
X282600Y313115D02*
Y324415D01*
X299200Y296515D02*
X301346Y294369D01*
X292000Y296515D02*
X299200D01*
X290100Y294615D02*
X292000Y296515D01*
X287500Y319315D02*
X304315Y302500D01*
X309780Y274935D02*
Y283135D01*
X301693Y270315D02*
Y280115D01*
X290100Y237915D02*
Y294615D01*
X283600Y345415D02*
Y362415D01*
Y345415D02*
X293200Y335815D01*
X281100Y335715D02*
X287500Y329315D01*
X304315Y302500D02*
X317000D01*
X301346Y280462D02*
Y294369D01*
Y280462D02*
X301693Y280115D01*
X309780Y274935D02*
X320300Y264415D01*
X294654Y280661D02*
Y290315D01*
Y280661D02*
X295000Y280315D01*
Y270315D02*
Y280315D01*
Y260189D02*
Y270315D01*
X281100Y335715D02*
Y369915D01*
X282600Y313115D02*
X299200Y296515D01*
X278600Y201815D02*
Y388315D01*
Y201815D02*
X283793Y196622D01*
X302843D01*
X290100Y237915D02*
X316900Y211115D01*
X387300Y266078D02*
Y312815D01*
X373300Y245715D02*
Y314115D01*
X283600Y362415D02*
X308000Y386815D01*
X345500Y371315D02*
X352000Y364815D01*
X357500D01*
X360500Y361815D01*
X341200Y251302D02*
Y272847D01*
X330100Y201180D02*
X343770Y187510D01*
X329071Y197915D02*
X344072Y182915D01*
X346000Y347815D02*
Y349815D01*
X345500Y371315D02*
Y375150D01*
X346000Y347815D02*
Y349815D01*
X364222Y335893D02*
X387300Y312815D01*
X342600Y344815D02*
X373300Y314115D01*
X346000Y349815D02*
Y352815D01*
X402300Y401815D02*
X410500Y393615D01*
X405406Y390187D02*
Y394509D01*
X406300Y389293D02*
X430178D01*
X400050Y401815D02*
X402300D01*
X417000Y421815D02*
X420950D01*
X414500Y416815D02*
X420950D01*
X412400Y411815D02*
X420950D01*
X414500Y424315D02*
X417000Y421815D01*
X414500Y424315D02*
Y444515D01*
X409500Y421815D02*
X414500Y416815D01*
X409500Y421815D02*
Y430515D01*
X400050Y416815D02*
X403800D01*
X391700Y411815D02*
X400050D01*
X405800Y418415D02*
X412400Y411815D01*
X418800Y426815D02*
X420950D01*
X457000Y394315D02*
X460000D01*
X435200D02*
X449126D01*
X430178Y389293D02*
X435200Y394315D01*
X405406Y390187D02*
X406300Y389293D01*
X472563Y394315D02*
X474063Y392815D01*
X468546Y426161D02*
X476600D01*
X476500Y408852D02*
Y419469D01*
X468200Y425815D02*
X468546Y426161D01*
X460000Y394315D02*
X472563D01*
X460000Y425815D02*
X468200D01*
X460000Y411715D02*
Y419122D01*
X303200Y208615D02*
X330100D01*
X316815Y204630D02*
X325000D01*
X316000Y203815D02*
X316815Y204630D01*
X301400Y206815D02*
X303200Y208615D01*
X306500Y203815D02*
X316000D01*
X306000Y203315D02*
X306500Y203815D01*
X301400Y198065D02*
X302843Y196622D01*
X306000D01*
X301400Y198065D02*
Y206815D01*
X327600Y198794D02*
Y204630D01*
Y198794D02*
X328479Y197915D01*
X330100Y201180D02*
Y208615D01*
X332600Y202215D02*
Y211115D01*
X320300Y253630D02*
Y264415D01*
Y253630D02*
X321500D01*
X319000Y249315D02*
X321500Y246815D01*
Y243000D02*
Y246815D01*
Y243000D02*
X327100D01*
X294626Y259815D02*
X295000Y260189D01*
X302500Y249315D02*
X319000D01*
X316900Y211115D02*
X332600D01*
X325000Y204630D02*
X327600D01*
X326149Y238115D02*
X345900Y218364D01*
X385200Y263978D02*
X387300Y266078D01*
X385200Y250715D02*
Y263978D01*
X380000Y250315D02*
Y263315D01*
X376000Y225215D02*
Y267074D01*
X365700Y238115D02*
X373300Y245715D01*
X390000Y232815D02*
Y238215D01*
X389800Y238415D02*
X390000Y238215D01*
X385200Y226741D02*
Y250715D01*
X413063Y231178D02*
X421100Y239215D01*
X413000Y193378D02*
X420937D01*
X413063Y231178D02*
Y237515D01*
Y226815D02*
Y231178D01*
X408363Y201252D02*
Y225530D01*
X328479Y197915D02*
X329071D01*
X332600Y202215D02*
X344805Y190010D01*
X391756Y201906D02*
X392500Y201161D01*
X369844Y202062D02*
X370000Y201906D01*
X355100Y190010D02*
Y199315D01*
X350500Y200815D02*
X355100Y199315D01*
X350500Y200815D02*
X351747Y202062D01*
X369844D01*
X392063Y194032D02*
X392500Y194469D01*
X407000Y259315D02*
X414354D01*
X402912Y255227D02*
X407000Y259315D01*
X385200Y250715D02*
X389500Y255015D01*
X329885Y254815D02*
X336713D01*
X336972Y254555D01*
X321500Y253630D02*
X328700D01*
X329885Y254815D01*
X336972Y247075D02*
X341200Y251302D01*
X331175Y247075D02*
X336972D01*
X327100Y243000D02*
X331175Y247075D01*
X326149Y238115D02*
X365700D01*
X357400Y250815D02*
X357900Y250315D01*
X346028Y250815D02*
X357400D01*
X357900Y250315D02*
X369370D01*
X328600Y284630D02*
X328675Y284555D01*
X321000Y293415D02*
X326100Y298515D01*
X321000Y284630D02*
Y293415D01*
X315400Y275565D02*
Y300900D01*
X341500Y278815D02*
X351500Y268815D01*
X376000Y267074D02*
X382300Y273374D01*
X378315Y276330D02*
Y281815D01*
X377600Y275615D02*
X378315Y276330D01*
X366685Y280815D02*
X367685Y281815D01*
X346028Y280815D02*
X366685D01*
X336972Y277075D02*
X341200Y272847D01*
X329675Y313055D02*
X337600D01*
X330760Y309214D02*
X334400Y305575D01*
X315400Y300900D02*
X317000Y302500D01*
X321000Y313130D02*
X329675Y313055D01*
X317000Y302500D02*
X321000D01*
X326100Y298515D02*
Y306515D01*
X334400Y305575D02*
X338472D01*
X347528Y309315D02*
X366685D01*
X377815Y297800D02*
Y309815D01*
Y297800D02*
X382300Y293315D01*
X341500Y278815D02*
Y285715D01*
X380000Y263315D02*
X384800Y268115D01*
X382300Y273374D02*
Y293315D01*
X384800Y268115D02*
Y311779D01*
X328675Y284555D02*
X336972D01*
X330175Y277075D02*
X336972D01*
X327100Y274000D02*
X330175Y277075D01*
X321000Y284630D02*
X328600D01*
X315400Y275565D02*
X316965Y274000D01*
X366685Y309315D02*
X367185Y309815D01*
X481937Y392815D02*
Y403415D01*
X476500Y408852D02*
X481937Y403415D01*
X308000Y396815D02*
X323000Y411815D01*
X302300Y412015D02*
X318800D01*
X281100Y369915D02*
X308000Y396815D01*
X278600Y388315D02*
X302300Y412015D01*
X403000Y282515D02*
X430100D01*
X441700Y225815D02*
Y258065D01*
X436500Y224315D02*
Y249315D01*
X433600Y218065D02*
Y249315D01*
X427000Y208421D02*
Y239515D01*
X420937Y193378D02*
X423406Y190909D01*
X445200Y274315D02*
X457000Y262515D01*
X474063Y330178D02*
Y392815D01*
X420032Y331815D02*
X460200D01*
X405032Y316815D02*
X420032Y331815D01*
X467800Y310715D02*
X485600D01*
X460200Y331815D02*
X465200Y326815D01*
X430100Y279315D02*
X433646D01*
X428150Y269315D02*
X433646D01*
X426900Y268065D02*
X428150Y269315D01*
X426900Y255565D02*
Y268065D01*
X419900Y269315D02*
X423800Y265415D01*
X430100Y279315D02*
Y282515D01*
X433600Y249315D02*
X433646D01*
X428150Y254315D02*
X433646D01*
X426900Y255565D02*
X428150Y254315D01*
X423800Y242715D02*
X427000Y239515D01*
X423800Y242715D02*
Y265415D01*
X421100Y239215D02*
Y263065D01*
X433646Y249315D02*
Y254315D01*
X428400Y312815D02*
X438469D01*
X433646Y249315D02*
X436500D01*
X404956Y274315D02*
X414354D01*
X402006Y191815D02*
Y210274D01*
X397006Y195725D02*
Y205315D01*
X395750Y194469D02*
X397006Y195725D01*
X392900Y209421D02*
X397006Y205315D01*
X392500Y194469D02*
X395750D01*
X387000Y224941D02*
X390000D01*
X382000Y219215D02*
X393000D01*
X385200Y226741D02*
X387000Y224941D01*
X376000Y225215D02*
X382000Y219215D01*
X392900Y209421D02*
Y214115D01*
X370000Y201906D02*
X391756D01*
X344072Y182915D02*
X491700D01*
X370000Y194032D02*
X392063D01*
X344805Y190010D02*
X355100D01*
X343770Y187510D02*
X393595D01*
X454269Y273718D02*
X468218D01*
X484900Y253815D02*
X497028D01*
X487972Y250075D02*
X488213Y250315D01*
X482000Y237315D02*
X487000Y232315D01*
X483900Y254815D02*
X484900Y253815D01*
X482000Y237315D02*
Y244515D01*
X477000Y249515D02*
X482000Y244515D01*
X471815Y254815D02*
X483900D01*
X461185Y262769D02*
X475231Y276815D01*
X456769Y276218D02*
X466003D01*
X468218Y273718D02*
X471315Y276815D01*
X497000Y188215D02*
Y229815D01*
X491700Y182915D02*
X497000Y188215D01*
X491500Y204447D02*
Y224441D01*
X480750Y193697D02*
X491500Y204447D01*
X487000Y232315D02*
X491500D01*
X475500Y193697D02*
X480750D01*
X472500Y206933D02*
X475500Y203933D01*
X469568D02*
X475500D01*
X466300Y193697D02*
X475500D01*
X472500Y206933D02*
Y224000D01*
X458744Y193109D02*
X469568Y203933D01*
X459418Y186815D02*
X466300Y193697D01*
X465630Y234630D02*
X472500D01*
X460000Y229000D02*
X465630Y234630D01*
X461097Y199115D02*
Y211815D01*
X460000Y225500D02*
Y229000D01*
X458597Y193109D02*
X458744D01*
X456097Y216815D02*
X461097Y211815D01*
X457000Y222500D02*
X460000Y225500D01*
X453500Y222500D02*
X460000Y229000D01*
X453606Y199115D02*
X461097D01*
X433646Y274315D02*
X445200D01*
X434850Y216815D02*
X456097D01*
X434409Y203130D02*
X456000D01*
X439300Y221515D02*
X444800D01*
X436500Y224315D02*
X439300Y221515D01*
X433600Y218065D02*
X434850Y216815D01*
X434000Y202721D02*
X434409Y203130D01*
X432700Y202721D02*
X434000D01*
X427000Y208421D02*
X432700Y202721D01*
X453500Y222500D02*
X457000D01*
X445400Y190909D02*
X453606Y199115D01*
X447600Y224315D02*
Y238215D01*
X444800Y221515D02*
X447600Y224315D01*
X408363Y201252D02*
X413000D01*
X402006Y191815D02*
X407006Y186815D01*
X456000Y192500D02*
X458597Y193109D01*
X423406Y190909D02*
X445400D01*
X407006Y186815D02*
X459418D01*
X503500Y250315D02*
X505000Y248815D01*
X488213Y250315D02*
X503500D01*
X494500Y232315D02*
X497000Y229815D01*
X491500Y232315D02*
X494500D01*
X414354Y274315D02*
Y279315D01*
Y249315D02*
Y254315D01*
X419850Y264315D02*
X421100Y263065D01*
X414354Y264315D02*
X419850D01*
X458250Y249515D02*
X477000D01*
X461185Y254815D02*
Y262769D01*
X457000Y250765D02*
X458250Y249515D01*
X457000Y250765D02*
Y262515D01*
X440450Y259315D02*
X441700Y258065D01*
X433646Y264315D02*
X442975D01*
X433646Y259315D02*
X440450D01*
X502015Y320130D02*
X514000D01*
X520500Y285000D02*
Y303000D01*
X515000Y279500D02*
X520500Y285000D01*
X514000Y309500D02*
X520500Y303000D01*
X501975Y290130D02*
X515000D01*
X500835Y309500D02*
X514000D01*
X471315Y276815D02*
Y281315D01*
X464899Y288912D02*
X477731D01*
X467399Y286412D02*
X475231D01*
X467399Y277615D02*
Y286412D01*
X466003Y276218D02*
X467399Y277615D01*
X464899Y285529D02*
Y288912D01*
X460685Y281315D02*
X464899Y285529D01*
X456769Y286415D02*
X465200Y294846D01*
X456769Y276218D02*
Y286415D01*
X454269Y273718D02*
Y306446D01*
X408969Y301815D02*
Y303190D01*
X467800Y310715D02*
Y323915D01*
X461185Y315815D02*
Y321815D01*
X499500Y310835D02*
X500835Y309500D01*
X485600Y310715D02*
Y310835D01*
X500200Y318315D02*
X502015Y320130D01*
X486500Y318315D02*
X500200D01*
X488387Y314575D02*
X495555D01*
X488114Y314847D02*
X488387Y314575D01*
X471815Y314847D02*
X488114D01*
X471500Y303447D02*
X486892Y288055D01*
X465200Y294846D02*
Y326815D01*
X499900Y288055D02*
X501975Y290130D01*
X515000Y279500D02*
X520500Y274000D01*
X486972Y288055D02*
X499900D01*
X480231Y284315D02*
X496028D01*
X486892Y288055D02*
X486972D01*
X477731Y286815D02*
X480231Y284315D01*
X477731Y286815D02*
Y288912D01*
X475231Y276815D02*
Y286412D01*
X520500Y254000D02*
Y274000D01*
X514685Y248815D02*
X515000Y248500D01*
X508500Y261815D02*
X511185Y259130D01*
X505000Y248815D02*
X514685D01*
X511185Y259130D02*
X515000D01*
X414354Y269315D02*
X419900D01*
X487972Y257555D02*
X508500D01*
Y261815D01*
X471815Y314847D02*
Y315815D01*
X467800Y323915D02*
X474063Y330178D01*
X515000Y248500D02*
X520500Y254000D01*
D49*
X434000Y318315D02*
D03*
X439000Y312815D02*
D03*
X434000Y307315D02*
D03*
X439000Y301815D02*
D03*
X404500Y317315D02*
D03*
X409500Y311815D02*
D03*
X404500Y306315D02*
D03*
X409500Y300815D02*
D03*
D50*
X308000Y376815D02*
D03*
D51*
Y386815D02*
D03*
Y396815D02*
D03*
Y406815D02*
D03*
Y416815D02*
D03*
Y426815D02*
D03*
D52*
X287500Y329315D02*
D03*
X288500Y360315D02*
D03*
D53*
X287500Y319315D02*
D03*
X288500Y350315D02*
D03*
D54*
X363688Y412504D02*
D03*
X357707Y409293D02*
D03*
X385000Y410500D02*
D03*
X356954Y404535D02*
D03*
X363454Y404223D02*
D03*
X366000Y388500D02*
D03*
X345850Y381000D02*
D03*
X392000Y423000D02*
D03*
X392250Y416250D02*
D03*
X360582Y421178D02*
D03*
X358000Y416000D02*
D03*
X360000Y398500D02*
D03*
X331000Y360500D02*
D03*
X360500Y388750D02*
D03*
X330000Y394500D02*
D03*
X339500Y402500D02*
D03*
X344452Y398048D02*
D03*
X347500Y420000D02*
D03*
X360000Y381500D02*
D03*
X323000Y348815D02*
D03*
X338000Y412815D02*
D03*
X325000Y394815D02*
D03*
X346000Y347815D02*
D03*
D55*
X475500Y434000D02*
D03*
X386240Y416250D02*
D03*
X392180Y406635D02*
D03*
X374900Y418750D02*
D03*
X315500Y374500D02*
D03*
X464000Y245000D02*
D03*
X448000Y250000D02*
D03*
X461500Y236500D02*
D03*
X296500Y241500D02*
D03*
X406739Y404760D02*
D03*
X414000Y400000D02*
D03*
X407000Y233500D02*
D03*
X418000Y219000D02*
D03*
X356000Y347500D02*
D03*
X359652Y339444D02*
D03*
X431900Y401815D02*
D03*
X404000Y265500D02*
D03*
X309780Y283135D02*
D03*
X377600Y275615D02*
D03*
X351500Y268815D02*
D03*
X389500Y255015D02*
D03*
X460000Y411715D02*
D03*
X389800Y238415D02*
D03*
X471500Y303447D02*
D03*
X413063Y237515D02*
D03*
X441700Y225815D02*
D03*
X410500Y393615D02*
D03*
X442975Y264315D02*
D03*
X418800Y430715D02*
D03*
X392900Y214115D02*
D03*
X414500Y444515D02*
D03*
X508500Y261815D02*
D03*
M02*
