G04*
G04 #@! TF.GenerationSoftware,Altium Limited,Altium Designer,21.3.2 (30)*
G04*
G04 Layer_Color=65535*
%FSLAX25Y25*%
%MOIN*%
G70*
G04*
G04 #@! TF.SameCoordinates,A7B022F8-E884-4121-B654-9C37E9188DC7*
G04*
G04*
G04 #@! TF.FilePolarity,Positive*
G04*
G01*
G75*
%ADD10C,0.00984*%
%ADD11C,0.00787*%
%ADD12C,0.02362*%
%ADD13C,0.00600*%
%ADD14C,0.01000*%
%ADD15C,0.00300*%
G36*
X424700Y407565D02*
X425700D01*
Y406065D01*
X424700D01*
Y407565D01*
D02*
G37*
D10*
X337465Y257902D02*
G03*
X337465Y257902I-492J0D01*
G01*
Y287902D02*
G03*
X337465Y287902I-492J0D01*
G01*
X338965Y316402D02*
G03*
X338965Y316402I-492J0D01*
G01*
X488465Y260902D02*
G03*
X488465Y260902I-492J0D01*
G01*
X487465Y291402D02*
G03*
X487465Y291402I-492J0D01*
G01*
X486992Y321661D02*
G03*
X486992Y321661I-492J0D01*
G01*
X287992Y310850D02*
G03*
X287992Y310850I-492J0D01*
G01*
X288992Y341850D02*
G03*
X288992Y341850I-492J0D01*
G01*
X341882Y403882D02*
G03*
X341882Y403882I-492J0D01*
G01*
X342744Y354480D02*
G03*
X342744Y354480I-492J0D01*
G01*
X414847Y282858D02*
G03*
X414847Y282858I-492J0D01*
G01*
D11*
X450000Y310315D02*
G03*
X450000Y310315I-13500J0D01*
G01*
X420500Y309315D02*
G03*
X420500Y309315I-13500J0D01*
G01*
X417000Y224256D02*
Y229374D01*
X344256Y244910D02*
Y248059D01*
X340713Y244910D02*
X344256D01*
Y253571D02*
Y256720D01*
X340713D02*
X344256D01*
Y274909D02*
Y278059D01*
X340713Y274909D02*
X344256D01*
Y283571D02*
Y286720D01*
X340713D02*
X344256D01*
X345756Y303410D02*
Y306559D01*
X342213Y303410D02*
X345756D01*
Y312071D02*
Y315220D01*
X342213D02*
X345756D01*
X495256Y247909D02*
Y251059D01*
X491713Y247909D02*
X495256D01*
Y256571D02*
Y259720D01*
X491713D02*
X495256D01*
X494256Y278410D02*
Y281559D01*
X490713Y278410D02*
X494256D01*
Y287071D02*
Y290220D01*
X490713D02*
X494256D01*
X493784Y308669D02*
Y311819D01*
X490240Y308669D02*
X493784D01*
Y317331D02*
Y320480D01*
X490240D02*
X493784D01*
X370925Y312768D02*
X374075D01*
X370925Y306862D02*
X374075D01*
X373110Y253268D02*
X376260D01*
X373110Y247362D02*
X376260D01*
X371425Y284768D02*
X374575D01*
X371425Y278862D02*
X374575D01*
X464925Y318768D02*
X468075D01*
X464925Y312862D02*
X468075D01*
X464925Y257768D02*
X468075D01*
X464925Y251862D02*
X468075D01*
X464425Y278362D02*
X467575D01*
X464425Y284268D02*
X467575D01*
X318547Y246740D02*
Y249890D01*
X324453Y246740D02*
Y249890D01*
X317547Y277740D02*
Y280890D01*
X323453Y277740D02*
Y280890D01*
X318047Y306240D02*
Y309390D01*
X323953Y306240D02*
Y309390D01*
X298563Y246756D02*
Y251874D01*
X478000Y390256D02*
Y395374D01*
X511047Y313240D02*
Y316390D01*
X516953Y313240D02*
Y316390D01*
X512047Y252240D02*
Y255390D01*
X517953Y252240D02*
Y255390D01*
X512047Y283240D02*
Y286390D01*
X517953Y283240D02*
Y286390D01*
X367441Y197969D02*
X372559D01*
X367441Y409315D02*
X372559D01*
X453063Y391756D02*
Y396874D01*
X322047Y197740D02*
Y200890D01*
X327953Y197740D02*
Y200890D01*
X488941Y228378D02*
X494059D01*
X458953Y196240D02*
Y199390D01*
X453047Y196240D02*
Y199390D01*
X469547Y227740D02*
Y230890D01*
X475453Y227740D02*
Y230890D01*
X450547Y226240D02*
Y229390D01*
X456453Y226240D02*
Y229390D01*
X387441Y228878D02*
X392559D01*
X410441Y197315D02*
X415559D01*
X303000Y431815D02*
X313000D01*
X303000Y371815D02*
X313000D01*
X303000D02*
Y431815D01*
X313000Y371815D02*
Y431815D01*
X275295Y313409D02*
X299705D01*
X275295D02*
Y335221D01*
X299705D01*
Y313409D02*
Y316291D01*
Y332339D02*
Y335221D01*
X276295Y344409D02*
X300705D01*
X276295D02*
Y366220D01*
X300705D01*
Y344409D02*
Y347291D01*
Y363339D02*
Y366220D01*
X342571Y410673D02*
X353988D01*
X342571Y407524D02*
X353988D01*
Y410673D01*
X342571Y407524D02*
Y410673D01*
X362842Y358516D02*
Y371114D01*
X343158Y358516D02*
Y371114D01*
X362842D01*
X343158Y358516D02*
X362842D01*
X420850Y246992D02*
X427150D01*
X420850Y281638D02*
X427150D01*
Y246992D02*
Y281638D01*
X420850Y246992D02*
Y281638D01*
X438921Y194650D02*
Y198980D01*
X429079Y194650D02*
Y198980D01*
X480224Y197437D02*
Y200193D01*
X470776Y197437D02*
Y200193D01*
D12*
X348276Y362453D02*
G03*
X348276Y362453I-1181J0D01*
G01*
D13*
X402300Y429365D02*
X418700D01*
X402300Y394265D02*
X418700D01*
D14*
X418502Y233001D02*
Y238999D01*
X421501D01*
X422501Y237999D01*
Y236000D01*
X421501Y235000D01*
X418502D01*
X420502D02*
X422501Y233001D01*
X424501D02*
X426500D01*
X425500D01*
Y238999D01*
X424501Y237999D01*
X433498Y238999D02*
X429499D01*
Y236000D01*
X431498Y237000D01*
X432498D01*
X433498Y236000D01*
Y234001D01*
X432498Y233001D01*
X430499D01*
X429499Y234001D01*
X396003Y331499D02*
Y325501D01*
X400002D01*
X406000Y331499D02*
X402001D01*
Y325501D01*
X406000D01*
X402001Y328500D02*
X404001D01*
X407999Y331499D02*
Y325501D01*
X410998D01*
X411998Y326501D01*
Y330499D01*
X410998Y331499D01*
X407999D01*
X413997Y325501D02*
X415997D01*
X414997D01*
Y331499D01*
X413997Y330499D01*
X334800Y267898D02*
X338799D01*
X336799D01*
Y261900D01*
X344797Y267898D02*
X342797Y266898D01*
X340798Y264899D01*
Y262900D01*
X341798Y261900D01*
X343797D01*
X344797Y262900D01*
Y263899D01*
X343797Y264899D01*
X340798D01*
X334800Y297898D02*
X338799D01*
X336799D01*
Y291900D01*
X344797Y297898D02*
X340798D01*
Y294899D01*
X342797Y295899D01*
X343797D01*
X344797Y294899D01*
Y292900D01*
X343797Y291900D01*
X341798D01*
X340798Y292900D01*
X336300Y326398D02*
X340299D01*
X338299D01*
Y320400D01*
X345297D02*
Y326398D01*
X342298Y323399D01*
X346297D01*
X485800Y270898D02*
X489799D01*
X487799D01*
Y264900D01*
X491798Y269898D02*
X492798Y270898D01*
X494797D01*
X495797Y269898D01*
Y268899D01*
X494797Y267899D01*
X493797D01*
X494797D01*
X495797Y266899D01*
Y265900D01*
X494797Y264900D01*
X492798D01*
X491798Y265900D01*
X484800Y301398D02*
X488799D01*
X486799D01*
Y295400D01*
X494797D02*
X490798D01*
X494797Y299399D01*
Y300398D01*
X493797Y301398D01*
X491798D01*
X490798Y300398D01*
X484400Y331598D02*
X488399D01*
X486399D01*
Y325600D01*
X490398D02*
X492397D01*
X491398D01*
Y331598D01*
X490398Y330598D01*
X365400Y316800D02*
Y322798D01*
X368399D01*
X369399Y321798D01*
Y319799D01*
X368399Y318799D01*
X365400D01*
X367399D02*
X369399Y316800D01*
X375397D02*
X371398D01*
X375397Y320799D01*
Y321798D01*
X374397Y322798D01*
X372398D01*
X371398Y321798D01*
X381395Y322798D02*
X379396Y321798D01*
X377396Y319799D01*
Y317800D01*
X378396Y316800D01*
X380395D01*
X381395Y317800D01*
Y318799D01*
X380395Y319799D01*
X377396D01*
X367600Y257300D02*
Y263298D01*
X370599D01*
X371599Y262298D01*
Y260299D01*
X370599Y259299D01*
X367600D01*
X369599D02*
X371599Y257300D01*
X377597D02*
X373598D01*
X377597Y261299D01*
Y262298D01*
X376597Y263298D01*
X374598D01*
X373598Y262298D01*
X383595Y263298D02*
X379596D01*
Y260299D01*
X381595Y261299D01*
X382595D01*
X383595Y260299D01*
Y258300D01*
X382595Y257300D01*
X380596D01*
X379596Y258300D01*
X365900Y288800D02*
Y294798D01*
X368899D01*
X369899Y293798D01*
Y291799D01*
X368899Y290799D01*
X365900D01*
X367899D02*
X369899Y288800D01*
X375897D02*
X371898D01*
X375897Y292799D01*
Y293798D01*
X374897Y294798D01*
X372898D01*
X371898Y293798D01*
X380895Y288800D02*
Y294798D01*
X377896Y291799D01*
X381895D01*
X459400Y322800D02*
Y328798D01*
X462399D01*
X463399Y327798D01*
Y325799D01*
X462399Y324799D01*
X459400D01*
X461399D02*
X463399Y322800D01*
X469397D02*
X465398D01*
X469397Y326799D01*
Y327798D01*
X468397Y328798D01*
X466398D01*
X465398Y327798D01*
X471396D02*
X472396Y328798D01*
X474395D01*
X475395Y327798D01*
Y326799D01*
X474395Y325799D01*
X473395D01*
X474395D01*
X475395Y324799D01*
Y323800D01*
X474395Y322800D01*
X472396D01*
X471396Y323800D01*
X459400Y261800D02*
Y267798D01*
X462399D01*
X463399Y266798D01*
Y264799D01*
X462399Y263799D01*
X459400D01*
X461399D02*
X463399Y261800D01*
X469397D02*
X465398D01*
X469397Y265799D01*
Y266798D01*
X468397Y267798D01*
X466398D01*
X465398Y266798D01*
X475395Y261800D02*
X471396D01*
X475395Y265799D01*
Y266798D01*
X474395Y267798D01*
X472396D01*
X471396Y266798D01*
X458900Y288300D02*
Y294298D01*
X461899D01*
X462899Y293298D01*
Y291299D01*
X461899Y290299D01*
X458900D01*
X460899D02*
X462899Y288300D01*
X468897D02*
X464898D01*
X468897Y292299D01*
Y293298D01*
X467897Y294298D01*
X465898D01*
X464898Y293298D01*
X470896Y288300D02*
X472895D01*
X471896D01*
Y294298D01*
X470896Y293298D01*
X318600Y259400D02*
Y265398D01*
X321599D01*
X322599Y264398D01*
Y262399D01*
X321599Y261399D01*
X318600D01*
X320599D02*
X322599Y259400D01*
X328597D02*
X324598D01*
X328597Y263399D01*
Y264398D01*
X327597Y265398D01*
X325598D01*
X324598Y264398D01*
X330596D02*
X331596Y265398D01*
X333595D01*
X334595Y264398D01*
Y260400D01*
X333595Y259400D01*
X331596D01*
X330596Y260400D01*
Y264398D01*
X317600Y290400D02*
Y296398D01*
X320599D01*
X321599Y295398D01*
Y293399D01*
X320599Y292399D01*
X317600D01*
X319599D02*
X321599Y290400D01*
X323598D02*
X325597D01*
X324598D01*
Y296398D01*
X323598Y295398D01*
X328596Y291400D02*
X329596Y290400D01*
X331595D01*
X332595Y291400D01*
Y295398D01*
X331595Y296398D01*
X329596D01*
X328596Y295398D01*
Y294399D01*
X329596Y293399D01*
X332595D01*
X318100Y318900D02*
Y324898D01*
X321099D01*
X322099Y323898D01*
Y321899D01*
X321099Y320899D01*
X318100D01*
X320099D02*
X322099Y318900D01*
X324098D02*
X326097D01*
X325098D01*
Y324898D01*
X324098Y323898D01*
X329096D02*
X330096Y324898D01*
X332096D01*
X333095Y323898D01*
Y322899D01*
X332096Y321899D01*
X333095Y320899D01*
Y319900D01*
X332096Y318900D01*
X330096D01*
X329096Y319900D01*
Y320899D01*
X330096Y321899D01*
X329096Y322899D01*
Y323898D01*
X330096Y321899D02*
X332096D01*
X290700Y257400D02*
Y263398D01*
X293699D01*
X294699Y262398D01*
Y260399D01*
X293699Y259399D01*
X290700D01*
X292699D02*
X294699Y257400D01*
X296698D02*
X298697D01*
X297698D01*
Y263398D01*
X296698Y262398D01*
X301696Y263398D02*
X305695D01*
Y262398D01*
X301696Y258400D01*
Y257400D01*
X470100Y400900D02*
Y406898D01*
X473099D01*
X474099Y405898D01*
Y403899D01*
X473099Y402899D01*
X470100D01*
X472099D02*
X474099Y400900D01*
X476098D02*
X478097D01*
X477098D01*
Y406898D01*
X476098Y405898D01*
X485095Y406898D02*
X483096Y405898D01*
X481096Y403899D01*
Y401900D01*
X482096Y400900D01*
X484095D01*
X485095Y401900D01*
Y402899D01*
X484095Y403899D01*
X481096D01*
X511100Y325900D02*
Y331898D01*
X514099D01*
X515099Y330898D01*
Y328899D01*
X514099Y327899D01*
X511100D01*
X513099D02*
X515099Y325900D01*
X517098D02*
X519097D01*
X518098D01*
Y331898D01*
X517098Y330898D01*
X522096D02*
X523096Y331898D01*
X525096D01*
X526095Y330898D01*
Y329899D01*
X525096Y328899D01*
X524096D01*
X525096D01*
X526095Y327899D01*
Y326900D01*
X525096Y325900D01*
X523096D01*
X522096Y326900D01*
X512100Y264900D02*
Y270898D01*
X515099D01*
X516099Y269898D01*
Y267899D01*
X515099Y266899D01*
X512100D01*
X514099D02*
X516099Y264900D01*
X518098D02*
X520097D01*
X519098D01*
Y270898D01*
X518098Y269898D01*
X527095Y264900D02*
X523096D01*
X527095Y268899D01*
Y269898D01*
X526095Y270898D01*
X524096D01*
X523096Y269898D01*
X512100Y295900D02*
Y301898D01*
X515099D01*
X516099Y300898D01*
Y298899D01*
X515099Y297899D01*
X512100D01*
X514099D02*
X516099Y295900D01*
X518098D02*
X520097D01*
X519098D01*
Y301898D01*
X518098Y300898D01*
X523096Y295900D02*
X525096D01*
X524096D01*
Y301898D01*
X523096Y300898D01*
X365900Y209800D02*
Y215798D01*
X368899D01*
X369899Y214798D01*
Y212799D01*
X368899Y211799D01*
X365900D01*
X367899D02*
X369899Y209800D01*
X371898D02*
X373897D01*
X372898D01*
Y215798D01*
X371898Y214798D01*
X376896D02*
X377896Y215798D01*
X379895D01*
X380895Y214798D01*
Y210800D01*
X379895Y209800D01*
X377896D01*
X376896Y210800D01*
Y214798D01*
X322100Y210400D02*
Y216398D01*
X325099D01*
X326099Y215398D01*
Y213399D01*
X325099Y212399D01*
X322100D01*
X324099D02*
X326099Y210400D01*
X328098Y216398D02*
X332097D01*
Y215398D01*
X328098Y211400D01*
Y210400D01*
X487400Y240200D02*
Y246198D01*
X490399D01*
X491399Y245198D01*
Y243199D01*
X490399Y242199D01*
X487400D01*
X489399D02*
X491399Y240200D01*
X497397Y246198D02*
X495397Y245198D01*
X493398Y243199D01*
Y241200D01*
X494398Y240200D01*
X496397D01*
X497397Y241200D01*
Y242199D01*
X496397Y243199D01*
X493398D01*
X453100Y208900D02*
Y214898D01*
X456099D01*
X457099Y213898D01*
Y211899D01*
X456099Y210899D01*
X453100D01*
X455099D02*
X457099Y208900D01*
X463097Y214898D02*
X459098D01*
Y211899D01*
X461097Y212899D01*
X462097D01*
X463097Y211899D01*
Y209900D01*
X462097Y208900D01*
X460098D01*
X459098Y209900D01*
X469600Y240400D02*
Y246398D01*
X472599D01*
X473599Y245398D01*
Y243399D01*
X472599Y242399D01*
X469600D01*
X471599D02*
X473599Y240400D01*
X478597D02*
Y246398D01*
X475598Y243399D01*
X479597D01*
X450600Y238900D02*
Y244898D01*
X453599D01*
X454599Y243898D01*
Y241899D01*
X453599Y240899D01*
X450600D01*
X452599D02*
X454599Y238900D01*
X456598Y243898D02*
X457598Y244898D01*
X459597D01*
X460597Y243898D01*
Y242899D01*
X459597Y241899D01*
X458597D01*
X459597D01*
X460597Y240899D01*
Y239900D01*
X459597Y238900D01*
X457598D01*
X456598Y239900D01*
X385900Y240700D02*
Y246698D01*
X388899D01*
X389899Y245698D01*
Y243699D01*
X388899Y242699D01*
X385900D01*
X387899D02*
X389899Y240700D01*
X395897D02*
X391898D01*
X395897Y244699D01*
Y245698D01*
X394897Y246698D01*
X392898D01*
X391898Y245698D01*
X408900Y209200D02*
Y215198D01*
X411899D01*
X412899Y214198D01*
Y212199D01*
X411899Y211199D01*
X408900D01*
X410899D02*
X412899Y209200D01*
X414898D02*
X416897D01*
X415898D01*
Y215198D01*
X414898Y214198D01*
X425004Y332999D02*
Y327001D01*
X429002D01*
X435000Y332999D02*
X431002D01*
Y327001D01*
X435000D01*
X431002Y330000D02*
X433001D01*
X437000Y332999D02*
Y327001D01*
X439999D01*
X440998Y328001D01*
Y331999D01*
X439999Y332999D01*
X437000D01*
X446996Y327001D02*
X442998D01*
X446996Y331000D01*
Y331999D01*
X445997Y332999D01*
X443997D01*
X442998Y331999D01*
X303600Y441198D02*
Y435200D01*
Y437199D01*
X307599Y441198D01*
X304600Y438199D01*
X307599Y435200D01*
X309598Y440198D02*
X310598Y441198D01*
X312597D01*
X313597Y440198D01*
Y439199D01*
X312597Y438199D01*
X311597D01*
X312597D01*
X313597Y437199D01*
Y436200D01*
X312597Y435200D01*
X310598D01*
X309598Y436200D01*
X477699Y437598D02*
X476699Y438598D01*
X474700D01*
X473700Y437598D01*
Y433600D01*
X474700Y432600D01*
X476699D01*
X477699Y433600D01*
X479698Y432600D02*
X481697D01*
X480698D01*
Y438598D01*
X479698Y437598D01*
X484696D02*
X485696Y438598D01*
X487696D01*
X488695Y437598D01*
Y433600D01*
X487696Y432600D01*
X485696D01*
X484696Y433600D01*
Y437598D01*
X328199Y423298D02*
X327199Y424298D01*
X325200D01*
X324200Y423298D01*
Y419300D01*
X325200Y418300D01*
X327199D01*
X328199Y419300D01*
X330198D02*
X331198Y418300D01*
X333197D01*
X334197Y419300D01*
Y423298D01*
X333197Y424298D01*
X331198D01*
X330198Y423298D01*
Y422299D01*
X331198Y421299D01*
X334197D01*
X351699Y212298D02*
X350699Y213298D01*
X348700D01*
X347700Y212298D01*
Y208300D01*
X348700Y207300D01*
X350699D01*
X351699Y208300D01*
X353698Y213298D02*
X357697D01*
Y212298D01*
X353698Y208300D01*
Y207300D01*
X296199Y302198D02*
X295199Y303198D01*
X293200D01*
X292200Y302198D01*
Y298200D01*
X293200Y297200D01*
X295199D01*
X296199Y298200D01*
X302197Y303198D02*
X300197Y302198D01*
X298198Y300199D01*
Y298200D01*
X299198Y297200D01*
X301197D01*
X302197Y298200D01*
Y299199D01*
X301197Y300199D01*
X298198D01*
X296599Y282198D02*
X295599Y283198D01*
X293600D01*
X292600Y282198D01*
Y278200D01*
X293600Y277200D01*
X295599D01*
X296599Y278200D01*
X302597Y283198D02*
X298598D01*
Y280199D01*
X300597Y281199D01*
X301597D01*
X302597Y280199D01*
Y278200D01*
X301597Y277200D01*
X299598D01*
X298598Y278200D01*
X393699Y212598D02*
X392699Y213598D01*
X390700D01*
X389700Y212598D01*
Y208600D01*
X390700Y207600D01*
X392699D01*
X393699Y208600D01*
X398697Y207600D02*
Y213598D01*
X395698Y210599D01*
X399697D01*
X307199Y214798D02*
X306199Y215798D01*
X304200D01*
X303200Y214798D01*
Y210800D01*
X304200Y209800D01*
X306199D01*
X307199Y210800D01*
X309198Y214798D02*
X310198Y215798D01*
X312197D01*
X313197Y214798D01*
Y213799D01*
X312197Y212799D01*
X311197D01*
X312197D01*
X313197Y211799D01*
Y210800D01*
X312197Y209800D01*
X310198D01*
X309198Y210800D01*
X365900Y421200D02*
Y427198D01*
X368899D01*
X369899Y426198D01*
Y424199D01*
X368899Y423199D01*
X365900D01*
X367899D02*
X369899Y421200D01*
X371898Y422200D02*
X372898Y421200D01*
X374897D01*
X375897Y422200D01*
Y426198D01*
X374897Y427198D01*
X372898D01*
X371898Y426198D01*
Y425199D01*
X372898Y424199D01*
X375897D01*
X445200Y402400D02*
Y408398D01*
X448199D01*
X449199Y407398D01*
Y405399D01*
X448199Y404399D01*
X445200D01*
X447199D02*
X449199Y402400D01*
X451198Y407398D02*
X452198Y408398D01*
X454197D01*
X455197Y407398D01*
Y406399D01*
X454197Y405399D01*
X455197Y404399D01*
Y403400D01*
X454197Y402400D01*
X452198D01*
X451198Y403400D01*
Y404399D01*
X452198Y405399D01*
X451198Y406399D01*
Y407398D01*
X452198Y405399D02*
X454197D01*
X257502Y341999D02*
Y336001D01*
Y338000D01*
X261500Y341999D01*
X258501Y339000D01*
X261500Y336001D01*
X267498D02*
X263500D01*
X267498Y340000D01*
Y340999D01*
X266499Y341999D01*
X264499D01*
X263500Y340999D01*
X262001Y370999D02*
Y365001D01*
Y367000D01*
X266000Y370999D01*
X263001Y368000D01*
X266000Y365001D01*
X267999D02*
X269999D01*
X268999D01*
Y370999D01*
X267999Y369999D01*
X342300Y387098D02*
X344299D01*
X343300D01*
Y381100D01*
X342300D01*
X344299D01*
X351297Y386098D02*
X350297Y387098D01*
X348298D01*
X347298Y386098D01*
Y382100D01*
X348298Y381100D01*
X350297D01*
X351297Y382100D01*
X357295Y381100D02*
X353296D01*
X357295Y385099D01*
Y386098D01*
X356295Y387098D01*
X354296D01*
X353296Y386098D01*
X408400Y292798D02*
X410399D01*
X409400D01*
Y286800D01*
X408400D01*
X410399D01*
X417397Y291798D02*
X416397Y292798D01*
X414398D01*
X413398Y291798D01*
Y287800D01*
X414398Y286800D01*
X416397D01*
X417397Y287800D01*
X419396Y286800D02*
X421396D01*
X420396D01*
Y292798D01*
X419396Y291798D01*
X341400Y426498D02*
X343399D01*
X342400D01*
Y420500D01*
X341400D01*
X343399D01*
X350397Y425498D02*
X349397Y426498D01*
X347398D01*
X346398Y425498D01*
Y421500D01*
X347398Y420500D01*
X349397D01*
X350397Y421500D01*
X355396Y420500D02*
Y426498D01*
X352396Y423499D01*
X356395D01*
X404002Y456499D02*
X406002D01*
X405002D01*
Y450501D01*
X404002D01*
X406002D01*
X412999Y455499D02*
X412000Y456499D01*
X410001D01*
X409001Y455499D01*
Y451501D01*
X410001Y450501D01*
X412000D01*
X412999Y451501D01*
X414999Y455499D02*
X415999Y456499D01*
X417998D01*
X418998Y455499D01*
Y454500D01*
X417998Y453500D01*
X416998D01*
X417998D01*
X418998Y452500D01*
Y451501D01*
X417998Y450501D01*
X415999D01*
X414999Y451501D01*
X474699Y214598D02*
X473699Y215598D01*
X471700D01*
X470700Y214598D01*
Y210600D01*
X471700Y209600D01*
X473699D01*
X474699Y210600D01*
X476698Y209600D02*
X478697D01*
X477698D01*
Y215598D01*
X476698Y214598D01*
X432599Y214198D02*
X431599Y215198D01*
X429600D01*
X428600Y214198D01*
Y210200D01*
X429600Y209200D01*
X431599D01*
X432599Y210200D01*
X438597Y209200D02*
X434598D01*
X438597Y213199D01*
Y214198D01*
X437597Y215198D01*
X435598D01*
X434598Y214198D01*
X461199Y437298D02*
X460199Y438298D01*
X458200D01*
X457200Y437298D01*
Y433300D01*
X458200Y432300D01*
X460199D01*
X461199Y433300D01*
X463198Y437298D02*
X464198Y438298D01*
X466197D01*
X467197Y437298D01*
Y436299D01*
X466197Y435299D01*
X467197Y434299D01*
Y433300D01*
X466197Y432300D01*
X464198D01*
X463198Y433300D01*
Y434299D01*
X464198Y435299D01*
X463198Y436299D01*
Y437298D01*
X464198Y435299D02*
X466197D01*
D15*
X394500Y435665D02*
X397832Y432333D01*
X394500D02*
X397832Y435665D01*
X394500Y433999D02*
X397832D01*
X396166Y432333D02*
Y435665D01*
M02*
