G04*
G04 #@! TF.GenerationSoftware,Altium Limited,Altium Designer,21.3.2 (30)*
G04*
G04 Layer_Color=8421504*
%FSLAX25Y25*%
%MOIN*%
G70*
G04*
G04 #@! TF.SameCoordinates,A7B022F8-E884-4121-B654-9C37E9188DC7*
G04*
G04*
G04 #@! TF.FilePolarity,Positive*
G04*
G01*
G75*
%ADD16R,0.05512X0.05906*%
%ADD17R,0.04134X0.02362*%
%ADD18R,0.04331X0.06693*%
%ADD19R,0.06693X0.04331*%
%ADD20R,0.05906X0.05512*%
%ADD21R,0.01772X0.04134*%
%ADD22R,0.05500X0.02200*%
G04:AMPARAMS|DCode=23|XSize=21.65mil|YSize=49.21mil|CornerRadius=1.95mil|HoleSize=0mil|Usage=FLASHONLY|Rotation=180.000|XOffset=0mil|YOffset=0mil|HoleType=Round|Shape=RoundedRectangle|*
%AMROUNDEDRECTD23*
21,1,0.02165,0.04532,0,0,180.0*
21,1,0.01776,0.04921,0,0,180.0*
1,1,0.00390,-0.00888,0.02266*
1,1,0.00390,0.00888,0.02266*
1,1,0.00390,0.00888,-0.02266*
1,1,0.00390,-0.00888,-0.02266*
%
%ADD23ROUNDEDRECTD23*%
%ADD24O,0.09843X0.02756*%
%ADD25R,0.05512X0.04724*%
%ADD26R,0.04724X0.05512*%
%ADD27R,0.10630X0.04528*%
%ADD28R,0.10236X0.04331*%
%ADD29C,0.01500*%
D16*
X420937Y226815D02*
D03*
X413063D02*
D03*
X302500Y249315D02*
D03*
X294626D02*
D03*
X474063Y392815D02*
D03*
X481937D02*
D03*
X457000Y394315D02*
D03*
X449126D02*
D03*
D17*
X346028Y250815D02*
D03*
X336972Y247075D02*
D03*
Y254555D02*
D03*
X346028Y280815D02*
D03*
X336972Y277075D02*
D03*
Y284555D02*
D03*
X347528Y309315D02*
D03*
X338472Y305575D02*
D03*
Y313055D02*
D03*
X497028Y253815D02*
D03*
X487972Y250075D02*
D03*
Y257555D02*
D03*
X496028Y284315D02*
D03*
X486972Y280575D02*
D03*
Y288055D02*
D03*
X495555Y314575D02*
D03*
X486500Y310835D02*
D03*
Y318315D02*
D03*
D18*
X367185Y309815D02*
D03*
X377815D02*
D03*
X369370Y250315D02*
D03*
X380000D02*
D03*
X367685Y281815D02*
D03*
X378315D02*
D03*
X461185Y315815D02*
D03*
X471815D02*
D03*
X461185Y254815D02*
D03*
X471815D02*
D03*
X471315Y281315D02*
D03*
X460685D02*
D03*
D19*
X321500Y243000D02*
D03*
Y253630D02*
D03*
X320500Y274000D02*
D03*
Y284630D02*
D03*
X321000Y302500D02*
D03*
Y313130D02*
D03*
X514000Y309500D02*
D03*
Y320130D02*
D03*
X515000Y248500D02*
D03*
Y259130D02*
D03*
Y279500D02*
D03*
Y290130D02*
D03*
X325000Y194000D02*
D03*
Y204630D02*
D03*
X456000Y203130D02*
D03*
Y192500D02*
D03*
X472500Y224000D02*
D03*
Y234630D02*
D03*
X453500Y222500D02*
D03*
Y233130D02*
D03*
D20*
X370000Y201906D02*
D03*
Y194032D02*
D03*
Y405378D02*
D03*
Y413252D02*
D03*
X491500Y224441D02*
D03*
Y232315D02*
D03*
X390000Y232815D02*
D03*
Y224941D02*
D03*
X413000Y201252D02*
D03*
Y193378D02*
D03*
D21*
X344441Y414315D02*
D03*
X347000D02*
D03*
X349559D02*
D03*
X352118D02*
D03*
Y403882D02*
D03*
X349559D02*
D03*
X347000D02*
D03*
X344441D02*
D03*
D22*
X420950Y426815D02*
D03*
Y421815D02*
D03*
Y416815D02*
D03*
Y411815D02*
D03*
Y406815D02*
D03*
Y401815D02*
D03*
Y396815D02*
D03*
X400050D02*
D03*
Y401815D02*
D03*
Y406815D02*
D03*
Y411815D02*
D03*
Y416815D02*
D03*
Y421815D02*
D03*
Y426815D02*
D03*
D23*
X360500Y375150D02*
D03*
X355500D02*
D03*
X350500D02*
D03*
X345500D02*
D03*
X360500Y354480D02*
D03*
X355500D02*
D03*
X350500D02*
D03*
X345500D02*
D03*
D24*
X433646Y249315D02*
D03*
Y254315D02*
D03*
Y259315D02*
D03*
Y264315D02*
D03*
Y269315D02*
D03*
Y274315D02*
D03*
Y279315D02*
D03*
X414354Y249315D02*
D03*
Y254315D02*
D03*
Y259315D02*
D03*
Y264315D02*
D03*
Y269315D02*
D03*
Y274315D02*
D03*
Y279315D02*
D03*
D25*
X476500Y426161D02*
D03*
Y419468D02*
D03*
X327000Y405122D02*
D03*
Y411815D02*
D03*
X460000Y419122D02*
D03*
Y425815D02*
D03*
X350500Y194122D02*
D03*
Y200815D02*
D03*
X392500Y194469D02*
D03*
Y201162D02*
D03*
X306000Y203315D02*
D03*
Y196622D02*
D03*
D26*
X294654Y290315D02*
D03*
X301346D02*
D03*
X295000Y270315D02*
D03*
X301693D02*
D03*
D27*
X434000Y202720D02*
D03*
Y190910D02*
D03*
D28*
X475500Y203933D02*
D03*
Y193697D02*
D03*
D29*
X323000Y411815D02*
X324500D01*
M02*
