G04*
G04 #@! TF.GenerationSoftware,Altium Limited,Altium Designer,21.3.2 (30)*
G04*
G04 Layer_Physical_Order=2*
G04 Layer_Color=16711680*
%FSLAX25Y25*%
%MOIN*%
G70*
G04*
G04 #@! TF.SameCoordinates,A7B022F8-E884-4121-B654-9C37E9188DC7*
G04*
G04*
G04 #@! TF.FilePolarity,Positive*
G04*
G01*
G75*
%ADD29C,0.01500*%
%ADD49C,0.05512*%
%ADD50R,0.05906X0.05906*%
%ADD51C,0.05906*%
%ADD52C,0.06299*%
%ADD53R,0.06299X0.06299*%
%ADD54C,0.03000*%
%ADD55C,0.05000*%
D29*
X360582Y421178D02*
X363688Y418072D01*
Y412504D02*
Y418072D01*
X354775Y412225D02*
Y412725D01*
X347500Y420000D02*
X354775Y412725D01*
Y412225D02*
X357707Y409293D01*
X386605Y411699D02*
X387699D01*
X385000Y410500D02*
X385406D01*
X386605Y411699D01*
X387699D02*
X392250Y416250D01*
X365622Y409250D02*
X370872Y414500D01*
X360204Y405570D02*
X363885Y409250D01*
X370872Y414500D02*
X376822D01*
X360204Y403189D02*
Y405570D01*
X363885Y409250D02*
X365622D01*
X366000Y388500D02*
Y401466D01*
X363454Y404012D02*
X366000Y401466D01*
X340298Y394798D02*
X352334D01*
X363454Y404012D02*
Y404223D01*
X356954Y404129D02*
Y404535D01*
X356290Y403464D02*
X356954Y404129D01*
X358654Y401750D02*
X358765D01*
X356290Y402921D02*
Y403464D01*
X358765Y401750D02*
X360204Y403189D01*
X475352Y434000D02*
X475500D01*
X333415Y431415D02*
X418800D01*
X472067Y430715D02*
X475352Y434000D01*
X418800Y430715D02*
X472067D01*
X392180Y406549D02*
Y406635D01*
X355792Y387050D02*
X357592Y385250D01*
X379298Y399763D02*
X391250Y411715D01*
X379298Y397202D02*
Y399763D01*
X315500Y374500D02*
X360132D01*
X357592Y385250D02*
X367346D01*
X391250Y411715D02*
X460000D01*
X360132Y374500D02*
X392180Y406549D01*
X367346Y385250D02*
X379298Y397202D01*
X345850Y381000D02*
X346100Y381250D01*
X359750D02*
X360000Y381500D01*
X346100Y381250D02*
X359750D01*
X378572Y416250D02*
X386240D01*
X382000Y418750D02*
X383751Y420500D01*
X389904D01*
X363355Y423000D02*
X392000D01*
X361928Y424428D02*
X363355Y423000D01*
X389904Y420500D02*
X390654Y419750D01*
X463421D01*
X464300Y418871D01*
Y409215D02*
Y418871D01*
X374900Y418750D02*
X382000D01*
X376822Y414500D02*
X378572Y416250D01*
X357306Y424428D02*
X361928D01*
X357332Y419832D02*
X357739Y419424D01*
Y416261D02*
Y419424D01*
X357332Y419832D02*
Y420158D01*
X356000Y421489D02*
Y423121D01*
X357306Y424428D01*
X356000Y421489D02*
X357332Y420158D01*
X357739Y416261D02*
X358000Y416000D01*
X356750Y399846D02*
X358654Y401750D01*
X356750Y399215D02*
Y399846D01*
X360000Y398500D02*
X360250Y398250D01*
X354250Y400882D02*
X356290Y402921D01*
X354250Y400250D02*
Y400882D01*
X360250Y389000D02*
Y398250D01*
Y389000D02*
X360500Y388750D01*
X330000Y356400D02*
Y359094D01*
X331000Y360094D02*
Y360500D01*
X330000Y359094D02*
X331000Y360094D01*
X352048Y398048D02*
X354250Y400250D01*
X352334Y394798D02*
X356750Y399215D01*
X344452Y398048D02*
X352048D01*
X330000Y356400D02*
X349100D01*
X296878D02*
X330000D01*
Y394500D02*
X331500D01*
X339500Y402500D01*
X336500Y391000D02*
X340298Y394798D01*
X310466Y391000D02*
X336500D01*
X442975Y264315D02*
X443644Y264985D01*
Y266588D02*
X444000Y266944D01*
Y304715D01*
X440900Y307815D02*
X444000Y304715D01*
X443644Y264985D02*
Y266588D01*
X454500Y239915D02*
X459250Y244665D01*
X463665D02*
X464000Y245000D01*
X459250Y244665D02*
X463665D01*
X447000Y239915D02*
X454500D01*
X451400Y253400D02*
Y307319D01*
X448000Y250000D02*
X451400Y253400D01*
X411900Y249615D02*
X425015Y236500D01*
X461500D01*
X353263Y242665D02*
X407913D01*
X352098Y241500D02*
X353263Y242665D01*
X296500Y241500D02*
X352098D01*
X414670Y395456D02*
Y399330D01*
X409830Y394285D02*
X410500Y393615D01*
X409750Y398240D02*
X409830Y398159D01*
X406479Y404500D02*
X406739Y404760D01*
X409830Y394285D02*
Y398159D01*
X414800Y360147D02*
Y395325D01*
X414905Y406915D02*
X462000D01*
X414000Y400000D02*
X414670Y399330D01*
X409750Y401760D02*
X414905Y406915D01*
X409750Y398240D02*
Y401760D01*
X397500Y404500D02*
X406479D01*
X414670Y395456D02*
X414800Y395325D01*
X395200Y233015D02*
X406515D01*
X407000Y233500D01*
X389800Y238415D02*
X395200Y233015D01*
X418000Y219615D02*
X424200Y225815D01*
X418000Y219000D02*
Y219615D01*
X360015Y367015D02*
X397500Y404500D01*
X352215Y351285D02*
Y353285D01*
Y351285D02*
X356000Y347500D01*
X359652Y339444D02*
X359923Y339715D01*
X412632D01*
X349100Y356400D02*
X352215Y353285D01*
X296463Y356815D02*
X296878Y356400D01*
X354315Y386815D02*
X354550Y387050D01*
X355792D01*
X308000Y386815D02*
X354315D01*
X431900Y401815D02*
X508500Y325215D01*
X379215Y265500D02*
X404000D01*
X320300Y324415D02*
X379215Y265500D01*
X306052Y391518D02*
X309948D01*
X304885Y391000D02*
X305534D01*
X309948Y391518D02*
X310466Y391000D01*
X305534D02*
X306052Y391518D01*
X303200Y389315D02*
X304885Y391000D01*
X325000Y394815D02*
X338000Y407815D01*
Y412815D01*
X310203Y411738D02*
X342980Y444515D01*
X312703Y410703D02*
X333415Y431415D01*
X310203Y410210D02*
Y411738D01*
X312703Y404867D02*
Y410703D01*
X308000Y408007D02*
X310203Y410210D01*
X342980Y444515D02*
X414500D01*
X308000Y406815D02*
Y408007D01*
X308879Y402112D02*
X309948D01*
X308000Y401234D02*
X308879Y402112D01*
X308000Y396815D02*
Y401234D01*
X309948Y402112D02*
X312703Y404867D01*
X285300Y367015D02*
X360015D01*
X323000Y348815D02*
X325000Y346815D01*
X346000D02*
Y347815D01*
X287500Y329315D02*
X291500Y333315D01*
X288500Y346815D02*
X291100Y344215D01*
X404600Y225815D02*
X424200D01*
X392900Y214115D02*
X404600Y225815D01*
X325000Y346815D02*
X346000D01*
X412632Y339715D02*
X434532Y317815D01*
X414504Y344215D02*
X451400Y307319D01*
X508500Y261815D02*
Y325215D01*
X378532Y333315D02*
X405032Y306815D01*
X284500Y324415D02*
X320300D01*
X280100Y312815D02*
X309780Y283135D01*
X282600Y326315D02*
X284500Y324415D01*
X282600Y326315D02*
Y354415D01*
X303200Y381615D02*
X308000Y376815D01*
X303200Y381615D02*
Y389315D01*
X462000Y406915D02*
X464300Y409215D01*
X414800Y360147D02*
X471500Y303447D01*
X282600Y354415D02*
X288500Y360315D01*
X280100Y361815D02*
X285300Y367015D01*
X280100Y312815D02*
Y361815D01*
X295000Y356815D02*
X296463D01*
X288500Y350315D02*
X295000Y356815D01*
X291100Y344215D02*
X414504D01*
X291500Y333315D02*
X378532D01*
X288500Y346815D02*
Y350315D01*
X424200Y225815D02*
X441700D01*
X405032Y306815D02*
X419200D01*
X389500Y255015D02*
X431900D01*
X377600Y275615D02*
X411269D01*
X370700Y249615D02*
X411900D01*
X420200Y307815D02*
X440900D01*
X419200Y306815D02*
X420200Y307815D01*
X411269Y275615D02*
X438469Y302815D01*
X351500Y268815D02*
X370700Y249615D01*
X431900Y255015D02*
X447000Y239915D01*
X407913Y242665D02*
X413063Y237515D01*
D49*
X434000Y318315D02*
D03*
X439000Y312815D02*
D03*
X434000Y307315D02*
D03*
X439000Y301815D02*
D03*
X404500Y317315D02*
D03*
X409500Y311815D02*
D03*
X404500Y306315D02*
D03*
X409500Y300815D02*
D03*
D50*
X308000Y376815D02*
D03*
D51*
Y386815D02*
D03*
Y396815D02*
D03*
Y406815D02*
D03*
Y416815D02*
D03*
Y426815D02*
D03*
D52*
X287500Y329315D02*
D03*
X288500Y360315D02*
D03*
D53*
X287500Y319315D02*
D03*
X288500Y350315D02*
D03*
D54*
X363688Y412504D02*
D03*
X357707Y409293D02*
D03*
X385000Y410500D02*
D03*
X356954Y404535D02*
D03*
X363454Y404223D02*
D03*
X366000Y388500D02*
D03*
X345850Y381000D02*
D03*
X392000Y423000D02*
D03*
X392250Y416250D02*
D03*
X360582Y421178D02*
D03*
X358000Y416000D02*
D03*
X360000Y398500D02*
D03*
X331000Y360500D02*
D03*
X360500Y388750D02*
D03*
X330000Y394500D02*
D03*
X339500Y402500D02*
D03*
X344452Y398048D02*
D03*
X347500Y420000D02*
D03*
X360000Y381500D02*
D03*
X323000Y348815D02*
D03*
X338000Y412815D02*
D03*
X325000Y394815D02*
D03*
X346000Y347815D02*
D03*
D55*
X475500Y434000D02*
D03*
X386240Y416250D02*
D03*
X392180Y406635D02*
D03*
X374900Y418750D02*
D03*
X315500Y374500D02*
D03*
X464000Y245000D02*
D03*
X448000Y250000D02*
D03*
X461500Y236500D02*
D03*
X296500Y241500D02*
D03*
X406739Y404760D02*
D03*
X414000Y400000D02*
D03*
X407000Y233500D02*
D03*
X418000Y219000D02*
D03*
X356000Y347500D02*
D03*
X359652Y339444D02*
D03*
X431900Y401815D02*
D03*
X404000Y265500D02*
D03*
X309780Y283135D02*
D03*
X377600Y275615D02*
D03*
X351500Y268815D02*
D03*
X389500Y255015D02*
D03*
X460000Y411715D02*
D03*
X389800Y238415D02*
D03*
X471500Y303447D02*
D03*
X413063Y237515D02*
D03*
X441700Y225815D02*
D03*
X410500Y393615D02*
D03*
X442975Y264315D02*
D03*
X418800Y430715D02*
D03*
X392900Y214115D02*
D03*
X414500Y444515D02*
D03*
X508500Y261815D02*
D03*
M02*
