G04*
G04 #@! TF.GenerationSoftware,Altium Limited,Altium Designer,21.3.2 (30)*
G04*
G04 Layer_Color=16711935*
%FSLAX25Y25*%
%MOIN*%
G70*
G04*
G04 #@! TF.SameCoordinates,A7B022F8-E884-4121-B654-9C37E9188DC7*
G04*
G04*
G04 #@! TF.FilePolarity,Negative*
G04*
G01*
G75*
%ADD42C,0.06312*%
%ADD43R,0.06706X0.06706*%
%ADD44C,0.06706*%
%ADD45C,0.07099*%
%ADD46R,0.07099X0.07099*%
%ADD47C,0.03800*%
%ADD48C,0.05800*%
D42*
X434000Y318315D02*
D03*
X439000Y312815D02*
D03*
X434000Y307315D02*
D03*
X439000Y301815D02*
D03*
X404500Y317315D02*
D03*
X409500Y311815D02*
D03*
X404500Y306315D02*
D03*
X409500Y300815D02*
D03*
D43*
X308000Y376815D02*
D03*
D44*
Y386815D02*
D03*
Y396815D02*
D03*
Y406815D02*
D03*
Y416815D02*
D03*
Y426815D02*
D03*
D45*
X287500Y329315D02*
D03*
X288500Y360315D02*
D03*
D46*
X287500Y319315D02*
D03*
X288500Y350315D02*
D03*
D47*
X363688Y412504D02*
D03*
X357707Y409293D02*
D03*
X385000Y410500D02*
D03*
X356954Y404535D02*
D03*
X363454Y404223D02*
D03*
X366000Y388500D02*
D03*
X345850Y381000D02*
D03*
X392000Y423000D02*
D03*
X392250Y416250D02*
D03*
X360582Y421178D02*
D03*
X358000Y416000D02*
D03*
X360000Y398500D02*
D03*
X331000Y360500D02*
D03*
X360500Y388750D02*
D03*
X330000Y394500D02*
D03*
X339500Y402500D02*
D03*
X344452Y398048D02*
D03*
X347500Y420000D02*
D03*
X360000Y381500D02*
D03*
X323000Y348815D02*
D03*
X338000Y412815D02*
D03*
X325000Y394815D02*
D03*
X346000Y347815D02*
D03*
D48*
X475500Y434000D02*
D03*
X386240Y416250D02*
D03*
X392180Y406635D02*
D03*
X374900Y418750D02*
D03*
X315500Y374500D02*
D03*
X464000Y245000D02*
D03*
X448000Y250000D02*
D03*
X461500Y236500D02*
D03*
X296500Y241500D02*
D03*
X406739Y404760D02*
D03*
X414000Y400000D02*
D03*
X407000Y233500D02*
D03*
X418000Y219000D02*
D03*
X356000Y347500D02*
D03*
X359652Y339444D02*
D03*
X431900Y401815D02*
D03*
X404000Y265500D02*
D03*
X309780Y283135D02*
D03*
X377600Y275615D02*
D03*
X351500Y268815D02*
D03*
X389500Y255015D02*
D03*
X460000Y411715D02*
D03*
X389800Y238415D02*
D03*
X471500Y303447D02*
D03*
X413063Y237515D02*
D03*
X441700Y225815D02*
D03*
X410500Y393615D02*
D03*
X442975Y264315D02*
D03*
X418800Y430715D02*
D03*
X392900Y214115D02*
D03*
X414500Y444515D02*
D03*
X508500Y261815D02*
D03*
M02*
